<svg width="60" height="60" viewBox="0 0 60 60" fill="none" xmlns="http://www.w3.org/2000/svg">
<path d="M47.8125 7.5C49.8844 7.5 51.5625 9.17812 51.5625 11.25V48.4142C51.5625 50.4861 49.8844 52.1642 47.8125 52.1642H6.5625C4.49062 52.1642 2.8125 50.4861 2.8125 48.4142V11.25C2.8125 9.17812 4.49062 7.5 6.5625 7.5H47.8125Z" fill="white"/>
<path d="M6.5625 52.1642H47.8125C49.8844 52.1642 51.5625 50.4861 51.5625 48.4142V28.125C42.6904 37.8316 27.6806 44.9725 2.8125 46.3057V48.4142C2.8125 50.4861 4.49061 52.1642 6.5625 52.1642Z" fill="white"/>
<path d="M47.8125 58.125C53.5079 58.125 58.125 53.5079 58.125 47.8125C58.125 42.1171 53.5079 37.5 47.8125 37.5C42.1171 37.5 37.5 42.1171 37.5 47.8125C37.5 53.5079 42.1171 58.125 47.8125 58.125Z" fill="white"/>
<path d="M53.9921 39.5707C55.2863 41.2941 56.0625 43.4289 56.0625 45.7501C56.0625 51.4455 51.4454 56.0626 45.75 56.0626C43.4287 56.0626 41.294 55.2863 39.5706 53.992C41.452 56.4972 44.4383 58.1251 47.8125 58.1251C53.5079 58.1251 58.125 53.508 58.125 47.8126C58.125 44.4384 56.4972 41.4521 53.9921 39.5707Z" fill="#FFC700"/>
<path d="M51.5625 16.875H2.8125V11.25C2.8125 9.17893 4.49143 7.5 6.5625 7.5H47.8125C49.8836 7.5 51.5625 9.17893 51.5625 11.25V16.875Z" fill="white"/>
<path d="M11.25 12.1875C10.2145 12.1875 9.375 11.348 9.375 10.3125V4.6875C9.375 3.65197 10.2145 2.8125 11.25 2.8125C12.2855 2.8125 13.125 3.65197 13.125 4.6875V10.3125C13.125 11.348 12.2855 12.1875 11.25 12.1875Z" fill="#FFC700"/>
<path d="M21.5625 12.1875C20.527 12.1875 19.6875 11.348 19.6875 10.3125V4.6875C19.6875 3.65197 20.527 2.8125 21.5625 2.8125C22.598 2.8125 23.4375 3.65197 23.4375 4.6875V10.3125C23.4375 11.348 22.598 12.1875 21.5625 12.1875Z" fill="#FFC700"/>
<path d="M32.8125 12.1875C31.777 12.1875 30.9375 11.348 30.9375 10.3125V4.6875C30.9375 3.65197 31.777 2.8125 32.8125 2.8125C33.848 2.8125 34.6875 3.65197 34.6875 4.6875V10.3125C34.6875 11.348 33.848 12.1875 32.8125 12.1875Z" fill="#FFC700"/>
<path d="M43.125 12.1875C42.0895 12.1875 41.25 11.348 41.25 10.3125V4.6875C41.25 3.65197 42.0895 2.8125 43.125 2.8125C44.1605 2.8125 45 3.65197 45 4.6875V10.3125C45 11.348 44.1605 12.1875 43.125 12.1875Z" fill="#FFC700"/>
<path d="M8.4375 21.5625H14.0625V27.1875H8.4375V21.5625Z" fill="#FFC700"/>
<path d="M18.75 21.5625H24.375V27.1875H18.75V21.5625Z" fill="#FFC700"/>
<path d="M29.0625 21.5625H34.6875V27.1875H29.0625V21.5625Z" fill="#FFC700"/>
<path d="M39.375 21.5625H45V27.1875H39.375V21.5625Z" fill="#FFC700"/>
<path d="M8.4375 31.875H14.0625V37.5H8.4375V31.875Z" fill="#FFC700"/>
<path d="M18.75 31.875H24.375V37.5H18.75V31.875Z" fill="#FFC700"/>
<path d="M29.0625 31.875H34.6875V37.5H29.0625V31.875Z" fill="#FFC700"/>
<path d="M39.375 31.875H45V37.5H39.375V31.875Z" fill="#FFC700"/>
<path d="M8.4375 42.1875H14.0625V47.8125H8.4375V42.1875Z" fill="#FFC700"/>
<path d="M18.75 42.1875H24.375V47.8125H18.75V42.1875Z" fill="#FFC700"/>
<path d="M29.0625 42.1875H34.6875V47.8125H29.0625V42.1875Z" fill="#FFC700"/>
<path d="M52.5 37.5987V11.25C52.5 8.66546 50.397 6.5625 47.8125 6.5625H45.9375V4.6875C45.9375 3.13659 44.6759 1.875 43.125 1.875C41.5741 1.875 40.3125 3.13659 40.3125 4.6875V6.5625H35.625V4.6875C35.625 3.13659 34.3634 1.875 32.8125 1.875C31.2616 1.875 30 3.13659 30 4.6875V6.5625H24.375V4.6875C24.375 3.13659 23.1134 1.875 21.5625 1.875C20.0116 1.875 18.75 3.13659 18.75 4.6875V6.5625H14.0625V4.6875C14.0625 3.13659 12.8009 1.875 11.25 1.875C9.69909 1.875 8.4375 3.13659 8.4375 4.6875V6.5625H6.5625C3.97796 6.5625 1.875 8.66546 1.875 11.25V48.75C1.875 51.3345 3.97796 53.4375 6.5625 53.4375H38.0845C40.0333 56.7945 43.659 59.0625 47.8125 59.0625C54.0161 59.0625 59.0625 54.0161 59.0625 47.8125C59.0625 43.283 56.3666 39.3806 52.5 37.5987ZM42.1875 4.6875C42.1875 4.17022 42.6077 3.75 43.125 3.75C43.6423 3.75 44.0625 4.17022 44.0625 4.6875V10.3125C44.0625 10.8298 43.6423 11.25 43.125 11.25C42.6077 11.25 42.1875 10.8298 42.1875 10.3125V4.6875ZM31.875 4.6875C31.875 4.17022 32.2952 3.75 32.8125 3.75C33.3298 3.75 33.75 4.17022 33.75 4.6875V10.3125C33.75 10.8298 33.3298 11.25 32.8125 11.25C32.2952 11.25 31.875 10.8298 31.875 10.3125V4.6875ZM20.625 4.6875C20.625 4.17022 21.0452 3.75 21.5625 3.75C22.0798 3.75 22.5 4.17022 22.5 4.6875V10.3125C22.5 10.8298 22.0798 11.25 21.5625 11.25C21.0452 11.25 20.625 10.8298 20.625 10.3125V4.6875ZM10.3125 4.6875C10.3125 4.17022 10.7327 3.75 11.25 3.75C11.7673 3.75 12.1875 4.17022 12.1875 4.6875V10.3125C12.1875 10.8298 11.7673 11.25 11.25 11.25C10.7327 11.25 10.3125 10.8298 10.3125 10.3125V4.6875ZM6.5625 8.4375H8.4375V10.3125C8.4375 11.8634 9.69909 13.125 11.25 13.125C12.8009 13.125 14.0625 11.8634 14.0625 10.3125V8.4375H18.75V10.3125C18.75 11.8634 20.0116 13.125 21.5625 13.125C23.1134 13.125 24.375 11.8634 24.375 10.3125V8.4375H30V10.3125C30 11.8634 31.2616 13.125 32.8125 13.125C34.3634 13.125 35.625 11.8634 35.625 10.3125V8.4375H40.3125V10.3125C40.3125 11.8634 41.5741 13.125 43.125 13.125C44.6759 13.125 45.9375 11.8634 45.9375 10.3125V8.4375H47.8125C49.3634 8.4375 50.625 9.69909 50.625 11.25V15.9375H3.75V11.25C3.75 9.69909 5.01159 8.4375 6.5625 8.4375ZM6.5625 51.5625C5.01159 51.5625 3.75 50.3009 3.75 48.75V17.8125H50.625V36.9327C49.7242 36.6995 48.7852 36.5625 47.8125 36.5625C47.1724 36.5625 46.5487 36.6287 45.9375 36.7318V31.875C45.9375 31.3568 45.5182 30.9375 45 30.9375H39.375C38.8568 30.9375 38.4375 31.3568 38.4375 31.875V37.5C38.4375 38.0182 38.8568 38.4375 39.375 38.4375H41.6071C38.5704 40.4541 36.5625 43.9017 36.5625 47.8125C36.5625 49.1289 36.8015 50.3875 37.2188 51.5625H6.5625ZM44.0625 36.5625H40.3125V32.8125H44.0625V36.5625ZM47.8125 57.1875C42.6434 57.1875 38.4375 52.9816 38.4375 47.8125C38.4375 42.6434 42.6434 38.4375 47.8125 38.4375C52.9816 38.4375 57.1875 42.6434 57.1875 47.8125C57.1875 52.9816 52.9816 57.1875 47.8125 57.1875Z" fill="#0D0F23"/>
<path d="M48.75 46.1976V40.3125H46.875V46.1976C46.3169 46.5224 45.9375 47.1202 45.9375 47.8125C45.9375 47.9074 45.9518 47.9985 45.9654 48.0896L42.5391 50.8301L43.7109 52.2949L47.1343 49.5562C47.3452 49.6383 47.5726 49.6875 47.8125 49.6875C48.848 49.6875 49.6875 48.848 49.6875 47.8125C49.6875 47.1202 49.3081 46.5224 48.75 46.1976Z" fill="#0D0F23"/>
<path d="M14.0625 20.625H8.4375C7.91932 20.625 7.5 21.0443 7.5 21.5625V27.1875C7.5 27.7057 7.91932 28.125 8.4375 28.125H14.0625C14.5807 28.125 15 27.7057 15 27.1875V21.5625C15 21.0443 14.5807 20.625 14.0625 20.625ZM13.125 26.25H9.375V22.5H13.125V26.25Z" fill="#0D0F23"/>
<path d="M24.375 20.625H18.75C18.2318 20.625 17.8125 21.0443 17.8125 21.5625V27.1875C17.8125 27.7057 18.2318 28.125 18.75 28.125H24.375C24.8932 28.125 25.3125 27.7057 25.3125 27.1875V21.5625C25.3125 21.0443 24.8932 20.625 24.375 20.625ZM23.4375 26.25H19.6875V22.5H23.4375V26.25Z" fill="#0D0F23"/>
<path d="M34.6875 20.625H29.0625C28.5443 20.625 28.125 21.0443 28.125 21.5625V27.1875C28.125 27.7057 28.5443 28.125 29.0625 28.125H34.6875C35.2057 28.125 35.625 27.7057 35.625 27.1875V21.5625C35.625 21.0443 35.2057 20.625 34.6875 20.625ZM33.75 26.25H30V22.5H33.75V26.25Z" fill="#0D0F23"/>
<path d="M39.375 28.125H45C45.5182 28.125 45.9375 27.7057 45.9375 27.1875V21.5625C45.9375 21.0443 45.5182 20.625 45 20.625H39.375C38.8568 20.625 38.4375 21.0443 38.4375 21.5625V27.1875C38.4375 27.7057 38.8568 28.125 39.375 28.125ZM40.3125 22.5H44.0625V26.25H40.3125V22.5Z" fill="#0D0F23"/>
<path d="M14.0625 30.9375H8.4375C7.91932 30.9375 7.5 31.3568 7.5 31.875V37.5C7.5 38.0182 7.91932 38.4375 8.4375 38.4375H14.0625C14.5807 38.4375 15 38.0182 15 37.5V31.875C15 31.3568 14.5807 30.9375 14.0625 30.9375ZM13.125 36.5625H9.375V32.8125H13.125V36.5625Z" fill="#0D0F23"/>
<path d="M24.375 30.9375H18.75C18.2318 30.9375 17.8125 31.3568 17.8125 31.875V37.5C17.8125 38.0182 18.2318 38.4375 18.75 38.4375H24.375C24.8932 38.4375 25.3125 38.0182 25.3125 37.5V31.875C25.3125 31.3568 24.8932 30.9375 24.375 30.9375ZM23.4375 36.5625H19.6875V32.8125H23.4375V36.5625Z" fill="#0D0F23"/>
<path d="M34.6875 30.9375H29.0625C28.5443 30.9375 28.125 31.3568 28.125 31.875V37.5C28.125 38.0182 28.5443 38.4375 29.0625 38.4375H34.6875C35.2057 38.4375 35.625 38.0182 35.625 37.5V31.875C35.625 31.3568 35.2057 30.9375 34.6875 30.9375ZM33.75 36.5625H30V32.8125H33.75V36.5625Z" fill="#0D0F23"/>
<path d="M14.0625 41.25H8.4375C7.91932 41.25 7.5 41.6693 7.5 42.1875V47.8125C7.5 48.3307 7.91932 48.75 8.4375 48.75H14.0625C14.5807 48.75 15 48.3307 15 47.8125V42.1875C15 41.6693 14.5807 41.25 14.0625 41.25ZM13.125 46.875H9.375V43.125H13.125V46.875Z" fill="#0D0F23"/>
<path d="M24.375 41.25H18.75C18.2318 41.25 17.8125 41.6693 17.8125 42.1875V47.8125C17.8125 48.3307 18.2318 48.75 18.75 48.75H24.375C24.8932 48.75 25.3125 48.3307 25.3125 47.8125V42.1875C25.3125 41.6693 24.8932 41.25 24.375 41.25ZM23.4375 46.875H19.6875V43.125H23.4375V46.875Z" fill="#0D0F23"/>
<path d="M34.6875 41.25H29.0625C28.5443 41.25 28.125 41.6693 28.125 42.1875V47.8125C28.125 48.3307 28.5443 48.75 29.0625 48.75H34.6875C35.2057 48.75 35.625 48.3307 35.625 47.8125V42.1875C35.625 41.6693 35.2057 41.25 34.6875 41.25ZM33.75 46.875H30V43.125H33.75V46.875Z" fill="#0D0F23"/>
</svg>
