<svg width="16" height="17" viewBox="0 0 16 17" fill="none" xmlns="http://www.w3.org/2000/svg">
<path d="M13.9295 1.44116H12.5178V2.85293C12.5178 3.13528 12.2825 3.32352 12.0472 3.32352C11.8119 3.32352 11.5766 3.13528 11.5766 2.85293V1.44116H4.04717V2.85293C4.04717 3.13528 3.81188 3.32352 3.57659 3.32352C3.34129 3.32352 3.106 3.13528 3.106 2.85293V1.44116H1.69423C0.98835 1.44116 0.470703 2.05293 0.470703 2.85293V4.54704H15.5295V2.85293C15.5295 2.05293 14.6825 1.44116 13.9295 1.44116ZM0.470703 5.53528V14.147C0.470703 14.9941 0.98835 15.5588 1.74129 15.5588H13.9766C14.7295 15.5588 15.5766 14.947 15.5766 14.147V5.53528H0.470703ZM4.65894 13.4412H3.52953C3.34129 13.4412 3.15306 13.3 3.15306 13.0647V11.8882C3.15306 11.7 3.29423 11.5118 3.52953 11.5118H4.706C4.89423 11.5118 5.08247 11.6529 5.08247 11.8882V13.0647C5.03541 13.3 4.89423 13.4412 4.65894 13.4412ZM4.65894 9.20587H3.52953C3.34129 9.20587 3.15306 9.06469 3.15306 8.8294V7.65293C3.15306 7.46469 3.29423 7.27646 3.52953 7.27646H4.706C4.89423 7.27646 5.08247 7.41763 5.08247 7.65293V8.8294C5.03541 9.06469 4.89423 9.20587 4.65894 9.20587ZM8.42364 13.4412H7.24717C7.05894 13.4412 6.8707 13.3 6.8707 13.0647V11.8882C6.8707 11.7 7.01188 11.5118 7.24717 11.5118H8.42364C8.61188 11.5118 8.80012 11.6529 8.80012 11.8882V13.0647C8.80012 13.3 8.65894 13.4412 8.42364 13.4412ZM8.42364 9.20587H7.24717C7.05894 9.20587 6.8707 9.06469 6.8707 8.8294V7.65293C6.8707 7.46469 7.01188 7.27646 7.24717 7.27646H8.42364C8.61188 7.27646 8.80012 7.41763 8.80012 7.65293V8.8294C8.80012 9.06469 8.65894 9.20587 8.42364 9.20587ZM12.1883 13.4412H11.0119C10.8236 13.4412 10.6354 13.3 10.6354 13.0647V11.8882C10.6354 11.7 10.7766 11.5118 11.0119 11.5118H12.1883C12.3766 11.5118 12.5648 11.6529 12.5648 11.8882V13.0647C12.5648 13.3 12.4236 13.4412 12.1883 13.4412ZM12.1883 9.20587H11.0119C10.8236 9.20587 10.6354 9.06469 10.6354 8.8294V7.65293C10.6354 7.46469 10.7766 7.27646 11.0119 7.27646H12.1883C12.3766 7.27646 12.5648 7.41763 12.5648 7.65293V8.8294C12.5648 9.06469 12.4236 9.20587 12.1883 9.20587Z" fill="#E0E0E0"/>
</svg>
