<svg width="60" height="60" viewBox="0 0 60 60" fill="none" xmlns="http://www.w3.org/2000/svg">
<path fill-rule="evenodd" clip-rule="evenodd" d="M26.0157 4.86328C39.8972 4.86328 51.1526 16.1153 51.1526 30C51.1526 43.8814 39.8972 55.1367 26.0157 55.1367C12.1309 55.1367 0.878906 43.8814 0.878906 30C0.878906 16.1153 12.1309 4.86328 26.0157 4.86328Z" fill="white"/>
<path fill-rule="evenodd" clip-rule="evenodd" d="M21.8314 5.21027C33.4204 7.44598 42.1764 17.6468 42.1764 29.8898C42.1764 42.3464 33.1134 52.6874 21.2207 54.6796C22.7724 54.9799 24.3774 55.1367 26.0158 55.1367C39.8972 55.1367 51.1526 43.8814 51.1526 30C51.1526 16.1153 39.8972 4.86328 26.0158 4.86328C24.5909 4.86328 23.1927 4.98012 21.8314 5.21027Z" fill="#FFC700"/>
<path fill-rule="evenodd" clip-rule="evenodd" d="M15.6813 32.2291C16.8425 36.3001 18.9481 40.0174 21.2839 42.3331C22.8322 43.868 25.3315 45.3496 27.8642 45.62C29.2324 45.7668 30.8641 45.5732 32.0854 45.0227C35.3555 43.5478 33.7339 41.3955 32.2355 39.2265C30.5137 36.5703 29.5393 35.9497 27.4204 36.3967C26.446 36.914 24.3472 35.0553 23.2093 32.3224C22.9723 31.7551 22.7621 31.1545 22.582 30.5438C22.4017 29.9299 22.2549 29.3125 22.1515 28.7152C21.6444 25.8255 22.4452 23.2594 23.5698 23.2627C25.6487 22.6821 26.1558 21.7011 26.1959 18.6145C26.3027 16.1385 26.4495 13.4524 22.8924 13.6626C21.5343 13.7426 20.0126 14.32 18.9082 15.0707C16.8626 16.4588 15.5078 18.8848 15.0073 20.9203C14.2498 23.9937 14.4601 28.1747 15.6813 32.2291Z" fill="white"/>
<path fill-rule="evenodd" clip-rule="evenodd" d="M24.167 18.7815C24.1437 20.5467 22.9457 20.4533 22.1114 21.0238C20.5832 22.0683 19.1182 24.344 20.156 30.257C20.5097 32.2625 23.4596 39.2166 27.0868 38.7127C29.3492 38.1488 29.6895 39.6203 30.2434 40.4579C31.6884 42.5534 32.1655 43.7914 30.4203 45.5199C31.0143 45.4131 31.5849 45.2497 32.0854 45.0227C35.3555 43.5478 33.7339 41.3955 32.2355 39.2265C30.5137 36.5703 29.5393 35.9497 27.4204 36.3967C26.446 36.914 24.3471 35.0553 23.2093 32.3224C22.9723 31.7551 22.7621 31.1545 22.5819 30.5438C22.4017 29.9299 22.2549 29.3125 22.1515 28.7152C21.6443 25.8255 22.4452 23.2594 23.5697 23.2627C25.6486 22.6821 26.1558 21.7011 26.1959 18.6145C26.3027 16.1385 26.4495 13.4524 22.8924 13.6626C21.9548 13.716 20.9437 14.0096 20.0426 14.4301C20.3296 14.3733 20.6166 14.3367 20.8969 14.3199C24.454 14.1098 24.2738 16.3055 24.167 18.7815Z" fill="white"/>
<path fill-rule="evenodd" clip-rule="evenodd" d="M31.8252 16.2821C31.8252 19.9459 33.9007 23.2061 37.1242 25.2883H37.1209L36.5704 29.8966V30.1034C36.5704 30.347 36.7405 30.6039 37.1142 30.2802C37.2544 30.1567 37.2777 30.1301 37.5446 29.8932L41.1652 27.0869C42.0161 27.3238 42.907 27.494 43.8246 27.5841C44.3652 27.6408 44.9157 27.6675 45.4731 27.6675C53.0112 27.6675 59.121 22.5721 59.121 16.2821C59.121 9.99544 53.0112 4.89661 45.4731 4.89661C44.9159 4.89661 44.3652 4.92661 43.8246 4.98004C37.0641 5.6575 31.8252 10.4593 31.8252 16.2821Z" fill="#FFC700"/>
<path fill-rule="evenodd" clip-rule="evenodd" d="M42.6201 5.14692C49.8311 5.45056 55.5672 10.4259 55.5672 16.5156C55.5672 20.016 53.6752 23.1427 50.7021 25.2316C49.0236 26.4128 46.9981 27.257 44.7724 27.6542C45.0027 27.6642 45.2362 27.6675 45.4732 27.6675C47.4186 27.6675 49.2672 27.3272 50.939 26.7166C55.7541 24.9581 59.1211 20.9471 59.1211 16.2822C59.1211 9.99556 53.0113 4.89673 45.4732 4.89673C44.9159 4.89673 44.3653 4.92673 43.8247 4.98017C43.4176 5.02013 43.0171 5.07685 42.6201 5.14692Z" fill="white"/>
<path d="M51.9002 14.5248H40.0342C39.5487 14.5248 39.1553 14.1313 39.1553 13.6459C39.1553 13.1605 39.5487 12.767 40.0342 12.767H51.9002C52.3857 12.767 52.7791 13.1605 52.7791 13.6459C52.7791 14.1313 52.3856 14.5248 51.9002 14.5248Z" fill="white"/>
<path d="M51.9002 19.1665H40.0342C39.5487 19.1665 39.1553 18.773 39.1553 18.2876C39.1553 17.8022 39.5487 17.4087 40.0342 17.4087H51.9002C52.3857 17.4087 52.7791 17.8022 52.7791 18.2876C52.7791 18.773 52.3856 19.1665 51.9002 19.1665Z" fill="white"/>
<path d="M23.5992 24.1412C23.6692 24.1389 23.7388 24.1282 23.8063 24.1094C26.5311 23.3483 27.033 21.7384 27.0746 18.6394L27.0769 18.5888C27.1511 16.869 27.2355 14.92 26.0247 13.7283C25.3053 13.0203 24.2339 12.7026 22.8408 12.7853C21.3997 12.8703 19.7035 13.4674 18.4147 14.3435C16.0296 15.9622 14.6499 18.6939 14.154 20.7101C13.3483 23.9787 13.604 28.3765 14.8379 32.4762C16.0108 36.5844 18.189 40.5022 20.6653 42.9573C22.1836 44.4625 24.8476 46.182 27.7706 46.4938C28.0957 46.5287 28.4292 46.5457 28.7652 46.5457C30.072 46.5457 31.4167 46.2883 32.447 45.8238C33.7462 45.2379 34.5062 44.4901 34.7704 43.5379C35.2053 41.9705 34.1307 40.4192 33.0916 38.9187L32.9661 38.7372C31.2611 36.1098 29.967 34.9612 27.2392 35.5367C27.1699 35.5513 27.1026 35.5742 27.039 35.605C27.0377 35.605 27.0364 35.605 27.0351 35.605C26.5801 35.605 25.0196 34.3833 24.0205 31.9837C23.8011 31.4585 23.6008 30.8903 23.4255 30.2964C23.2507 29.7005 23.1135 29.1181 23.0175 28.5633C22.5866 26.1086 23.2285 24.3542 23.5992 24.1412ZM22.1663 23.0966C21.2292 24.2091 20.8754 26.5281 21.2857 28.8652C21.3928 29.4836 21.5451 30.1316 21.7392 30.7928C21.9329 31.4489 22.1547 32.0775 22.3981 32.6603C23.3243 34.8847 24.8924 36.7183 26.3001 37.2228C26.9141 37.4427 27.3824 37.367 27.6965 37.2373C29.1361 36.9455 29.8226 37.1195 31.4985 39.7045C31.503 39.7118 31.5078 39.719 31.5127 39.726L31.6468 39.9196C32.4554 41.087 33.2915 42.2943 33.0769 43.0679C32.9624 43.4802 32.5074 43.8683 31.7246 44.2214C30.6981 44.6842 29.2547 44.8852 27.9579 44.7461C25.4837 44.482 23.1498 42.945 21.903 41.709C19.6301 39.4555 17.6203 35.8215 16.5268 31.988C16.5256 31.9838 16.5244 31.9797 16.5232 31.9756C15.3746 28.1625 15.127 24.1084 15.8611 21.1303C16.2599 19.5083 17.4266 17.1386 19.4025 15.7977C20.4288 15.1001 21.8191 14.6064 22.9445 14.5401C23.0579 14.5334 23.167 14.5301 23.2719 14.5301C23.9768 14.5301 24.4872 14.6814 24.7918 14.9812C25.4457 15.6247 25.3822 17.093 25.3208 18.5129L25.3181 18.5768C25.3178 18.5856 25.3175 18.5944 25.3174 18.6033C25.2791 21.5563 24.821 21.9891 23.4262 22.3902C23.07 22.4213 22.6015 22.5802 22.1663 23.0966Z" fill="#292929"/>
<path d="M51.9002 12.767H40.0342C39.5487 12.767 39.1553 13.1605 39.1553 13.6459C39.1553 14.1313 39.5487 14.5248 40.0342 14.5248H51.9002C52.3857 14.5248 52.7791 14.1313 52.7791 13.6459C52.7791 13.1605 52.3856 12.767 51.9002 12.767Z" fill="#292929"/>
<path d="M51.9002 17.4087H40.0342C39.5487 17.4087 39.1553 17.8022 39.1553 18.2876C39.1553 18.773 39.5487 19.1665 40.0342 19.1665H51.9002C52.3857 19.1665 52.7791 18.773 52.7791 18.2876C52.7791 17.8022 52.3856 17.4087 51.9002 17.4087Z" fill="#292929"/>
<path d="M60 16.282C60 13.7621 59.1033 11.3429 57.4066 9.28594C57.0977 8.91141 56.5438 8.85832 56.1693 9.16711C55.7948 9.4759 55.7416 10.0298 56.0504 10.4044C57.4843 12.1429 58.2422 14.1752 58.2422 16.282C58.2422 22.0754 52.5141 26.7886 45.4732 26.7886C44.0786 26.7886 42.7084 26.604 41.4009 26.2402C41.1338 26.1657 40.8466 26.222 40.6269 26.3921L37.5933 28.7434L37.9847 25.4679C38.0586 25.1146 37.9085 24.7484 37.6012 24.55C34.4891 22.5396 32.7043 19.526 32.7043 16.2819C32.7043 10.4885 38.4325 5.77535 45.4733 5.77535C48.3636 5.77535 51.0912 6.55266 53.3611 8.02336C53.7682 8.28727 54.3127 8.17102 54.5766 7.76367C54.8406 7.35621 54.7243 6.81211 54.3169 6.54809C51.7617 4.89258 48.7037 4.01754 45.4733 4.01754C42.2782 4.01754 39.3214 4.89363 36.9203 6.37523C33.4948 4.79004 29.8293 3.98438 26.0157 3.98438C18.9875 3.98438 12.4036 6.74156 7.4768 11.748C7.13637 12.0941 7.14082 12.6505 7.48676 12.9909C7.65797 13.1595 7.88063 13.2434 8.10316 13.2434C8.33039 13.2434 8.55762 13.1557 8.72965 12.981C13.3234 8.31305 19.4624 5.74219 26.0157 5.74219C29.233 5.74219 32.3368 6.35602 35.2632 7.5668C32.5996 9.79125 30.9464 12.8766 30.9464 16.282C30.9464 19.9672 32.8482 23.3776 36.1848 25.7154L35.6977 29.7923C35.6936 29.8269 35.6914 29.8617 35.6914 29.8966V30.1036C35.6914 30.6015 35.9463 31.0271 36.3566 31.2146C36.447 31.2559 36.6042 31.3104 36.805 31.3104C37.0509 31.3104 37.3621 31.2285 37.6951 30.94C37.7627 30.8804 37.805 30.8419 37.8572 30.7943C37.9118 30.7445 37.9781 30.6839 38.1063 30.57L41.3609 28.0474C42.6902 28.3787 44.0714 28.5465 45.4732 28.5465C47.1196 28.5465 48.7025 28.3137 50.1791 27.8857C50.24 28.59 50.2737 29.2975 50.2737 30.0001C50.2737 43.3759 39.3916 54.2579 26.0157 54.2579C12.6398 54.2579 1.75781 43.3758 1.75781 30C1.75781 24.9213 3.30879 20.0598 6.24305 15.9411C6.52465 15.5457 6.43254 14.997 6.03715 14.7154C5.64187 14.4336 5.09309 14.5259 4.81137 14.9213C1.66371 19.3393 0 24.5535 0 30C0 36.9487 2.70586 43.4817 7.61906 48.3954C12.5326 53.3094 19.0661 56.0156 26.0157 56.0156C40.3609 56.0156 52.0315 44.345 52.0315 30C52.0315 29.0968 51.9832 28.1859 51.8893 27.2831C56.6902 25.2793 60 21.1012 60 16.282Z" fill="#292929"/>
</svg>
