<svg width="24" height="24" viewBox="0 0 24 24" fill="none" xmlns="http://www.w3.org/2000/svg">
<g clip-path="url(#clip0_166_15046)">
<path d="M1.17209 24C0.940287 24 0.713675 23.9313 0.520921 23.8026C0.328167 23.6738 0.177931 23.4908 0.0892164 23.2766C0.000501992 23.0625 -0.0227054 22.8268 0.0225297 22.5994C0.0677649 22.3721 0.17941 22.1633 0.343344 21.9994L21.9996 0.343127C22.2194 0.123329 22.5175 -0.000152588 22.8283 -0.000152588C23.1392 -0.000152588 23.4373 0.123329 23.6571 0.343127C23.8769 0.562925 24.0004 0.861035 24.0004 1.17188C24.0004 1.48272 23.8769 1.78083 23.6571 2.00063L2.00084 23.6569C1.89211 23.7658 1.76292 23.8522 1.6207 23.9111C1.47848 23.97 1.32602 24.0002 1.17209 24Z" fill="#292929"/>
<path d="M22.8283 24C22.6743 24.0002 22.5219 23.97 22.3797 23.9111C22.2374 23.8522 22.1083 23.7658 21.9995 23.6569L0.34328 2.00063C0.123481 1.78083 0 1.48272 0 1.17188C0 0.861035 0.123481 0.562925 0.34328 0.343127C0.563078 0.123329 0.861188 -0.000152588 1.17203 -0.000152588C1.48287 -0.000152588 1.78098 0.123329 2.00078 0.343127L23.657 21.9994C23.821 22.1633 23.9326 22.3721 23.9778 22.5994C24.0231 22.8268 23.9999 23.0625 23.9112 23.2766C23.8224 23.4908 23.6722 23.6738 23.4795 23.8026C23.2867 23.9313 23.0601 24 22.8283 24Z" fill="#292929"/>
</g>
<defs>
<clipPath id="clip0_166_15046">
<rect width="24" height="24" fill="white"/>
</clipPath>
</defs>
</svg>
