<svg width="32" height="32" viewBox="0 0 32 32" fill="none" xmlns="http://www.w3.org/2000/svg">
<g clip-path="url(#clip0_53_8950)">
<path d="M31.3325 2.12809L19.6317 10.5873L17.7117 11.9786C16.6946 12.7299 15.3061 12.7299 14.289 11.9786L12.369 10.5873L0.654297 2.14203C1.30542 1.23072 2.35867 0.690905 3.47867 0.695093H28.5222C29.6338 0.695093 30.6787 1.22797 31.3325 2.12809Z" fill="#FFC700"/>
<path d="M0.653962 2.14185L12.3688 10.5871L1.01571 21.9401C0.36315 21.2862 -0.00135043 20.3999 2.45667e-05 19.4775V4.17316C-0.00272543 3.44272 0.225462 2.73178 0.653962 2.14185Z" fill="#FFC700"/>
<path d="M31.9995 4.17318V19.4776C32.0009 20.4 31.6364 21.2862 30.9839 21.9402L19.6309 10.5871L31.3317 2.12793C31.7659 2.72068 31.9995 3.43718 31.9995 4.17318Z" fill="#FFC700"/>
<path d="M20.8694 25.7384C19.9456 25.7384 19.4781 25.0428 19.4781 23.6515C19.5003 21.7078 17.9435 20.1134 15.9998 20.0911C14.0562 20.0688 12.4618 21.6257 12.4395 23.5693C12.4172 25.513 13.9741 27.1074 15.9177 27.1297C16.9598 27.1422 17.9532 26.6915 18.6308 25.9012C19.0927 26.6928 19.9539 27.1659 20.8694 27.1297C23.652 27.1297 23.652 24.5113 23.652 23.6515C23.652 19.4246 20.2267 15.9993 15.9998 15.9993C11.773 15.9993 8.34766 19.4246 8.34766 23.6501C8.34766 27.8755 11.7731 31.3023 15.9998 31.3023C17.9852 31.3023 19.8927 30.5301 21.3202 29.1499C21.5971 28.8814 21.6027 28.439 21.3342 28.1635C21.0657 27.8866 20.6232 27.881 20.3463 28.1495C17.8573 30.5495 13.8935 30.4786 11.4935 27.9895C9.09347 25.5005 9.16441 21.5366 11.6535 19.1366C14.1425 16.7366 18.1063 16.8076 20.5063 19.2966C21.6333 20.4653 22.2622 22.0264 22.2608 23.65C22.2607 25.2111 21.9102 25.7384 20.8694 25.7384ZM15.9998 25.7384C14.8478 25.7384 13.9129 24.8035 13.9129 23.6515C13.9129 22.4995 14.8478 21.5645 15.9998 21.5645C17.1518 21.5645 18.0868 22.4981 18.0868 23.6515C18.0868 24.8048 17.1518 25.7384 15.9998 25.7384Z" fill="#2F80ED"/>
<path d="M19.6313 10.5872L17.7113 11.9785C16.6942 12.7298 15.3057 12.7298 14.2886 11.9785L12.3686 10.5872L1.01562 21.9402C1.66956 22.5927 2.55581 22.9572 3.47825 22.9558H6.99131C7.36837 17.9805 11.7064 14.2532 16.6804 14.6288C21.1326 14.9655 24.6706 18.5037 25.0073 22.9558H28.5217C29.4442 22.9572 30.3304 22.5927 30.9844 21.9402L19.6313 10.5872Z" fill="#FFC700"/>
<path d="M28.5217 22.9559H25.7391C25.3551 22.9559 25.0435 22.6443 25.0435 22.2603C25.0435 21.8763 25.3551 21.5647 25.7391 21.5647H28.5217C29.6724 21.5647 30.6087 20.6283 30.6087 19.4778V4.17332C30.6087 3.02269 29.6723 2.08638 28.5217 2.08638H3.47831C2.32769 2.08638 1.39137 3.02132 1.39137 4.17332V19.4777C1.39137 20.6283 2.32775 21.5646 3.47831 21.5646H6.26094C6.64494 21.5646 6.95656 21.8749 6.95656 22.2603C6.95656 22.6456 6.64494 22.9559 6.26094 22.9559H3.47831C1.56106 22.9559 0 21.3949 0 19.4776V4.17332C0 2.25607 1.56106 0.695068 3.47831 0.695068H28.5218C30.4404 0.695068 32 2.25469 32 4.17332V19.4777C32 21.3949 30.4404 22.9559 28.5217 22.9559Z" fill="#292929"/>
<path d="M16.0011 13.2377C15.2567 13.2377 14.5124 13.0053 13.8766 12.5406L3.07165 4.73687C2.75859 4.51149 2.68902 4.07737 2.91446 3.76574C3.13846 3.45268 3.57252 3.38312 3.88559 3.60855L14.696 11.4151C15.4793 11.9869 16.5242 11.9869 17.302 11.4179L28.1138 3.60855C28.4254 3.38455 28.8595 3.45274 29.0849 3.76437C29.3103 4.07599 29.2393 4.51149 28.9291 4.73549L18.1186 12.5421C17.487 13.0054 16.744 13.2377 16.0011 13.2377Z" fill="#2F80ED"/>
<path d="M3.47821 20.1732C3.30015 20.1732 3.12202 20.105 2.98571 19.97C2.7144 19.6987 2.7144 19.2577 2.98571 18.9864L9.94221 12.0299C10.2135 11.7586 10.6546 11.7586 10.9258 12.0299C11.1971 12.3012 11.1971 12.7423 10.9258 13.0135L3.96934 19.97C3.83434 20.105 3.65627 20.1732 3.47821 20.1732Z" fill="#292929"/>
<path d="M28.5216 20.1732C28.3436 20.1732 28.1654 20.105 28.0291 19.9701L21.0726 13.0135C20.8013 12.7422 20.8013 12.3012 21.0726 12.0299C21.3439 11.7586 21.785 11.7586 22.0563 12.0299L29.0127 18.9864C29.2841 19.2577 29.2841 19.6988 29.0127 19.97C28.8778 20.105 28.6997 20.1732 28.5216 20.1732Z" fill="#292929"/>
<path d="M16.0043 31.3051C15.9612 31.3051 15.9181 31.3051 15.8749 31.3037C13.8311 31.2704 11.9236 30.4425 10.5018 28.9733C7.56751 25.9402 7.6482 21.0874 10.6798 18.1545C12.149 16.7325 14.1163 15.9674 16.1268 16.0021C18.1692 16.0355 20.0781 16.8633 21.5 18.3312C22.8871 19.7656 23.6523 21.655 23.6523 23.6515C23.6523 24.0355 23.3407 24.3472 22.9567 24.3472C22.5727 24.3472 22.2611 24.0355 22.2611 23.6515C22.2611 22.0182 21.635 20.4724 20.4983 19.2982C19.3351 18.0975 17.7741 17.4199 16.1018 17.3921C14.4628 17.3921 12.8475 17.9917 11.6454 19.1549C9.1647 21.5549 9.09933 25.5257 11.5007 28.0064C12.6638 29.2085 14.2249 29.886 15.8972 29.9125C17.5751 29.9709 19.1501 29.3142 20.3536 28.1511C20.6291 27.8854 21.0701 27.8909 21.3372 28.1678C21.6043 28.4447 21.5974 28.8843 21.3205 29.1514C19.8833 30.5427 18.0009 31.3051 16.0043 31.3051Z" fill="#292929"/>
<path d="M15.9997 27.1298C14.0825 27.1298 12.5215 25.5688 12.5215 23.6516C12.5215 21.7344 14.0825 20.1733 15.9997 20.1733C17.9169 20.1733 19.478 21.733 19.478 23.6516C19.478 25.5702 17.917 27.1298 15.9997 27.1298ZM15.9997 21.5647C14.8491 21.5647 13.9128 22.501 13.9128 23.6516C13.9128 24.8022 14.8492 25.7385 15.9997 25.7385C17.1503 25.7385 18.0867 24.8022 18.0867 23.6516C18.0867 22.501 17.1504 21.5647 15.9997 21.5647Z" fill="#292929"/>
<path d="M20.8695 27.1297C19.1276 27.1297 18.0869 25.8288 18.0869 23.6514C18.0869 23.2674 18.3985 22.9558 18.7825 22.9558C19.1665 22.9558 19.4782 23.2661 19.4782 23.6514C19.4782 25.0358 19.947 25.7384 20.8695 25.7384C21.9102 25.7384 22.2608 25.2111 22.2608 23.6514C22.2608 23.2674 22.5724 22.9558 22.9564 22.9558C23.3404 22.9558 23.652 23.2661 23.652 23.6514C23.6522 24.5112 23.6522 27.1297 20.8695 27.1297Z" fill="#292929"/>
</g>
<defs>
<clipPath id="clip0_53_8950">
<rect width="32" height="32" fill="white"/>
</clipPath>
</defs>
</svg>
