<svg width="20" height="20" viewBox="0 0 20 20" fill="none" xmlns="http://www.w3.org/2000/svg">
<g clip-path="url(#clip0_43_522)">
<path d="M13.2608 10.6522H0.652174C0.292173 10.6522 0 10.36 0 10C0 9.64001 0.292173 9.34784 0.652174 9.34784H13.2608C13.6208 9.34784 13.913 9.64001 13.913 10C13.913 10.36 13.6208 10.6522 13.2608 10.6522Z" fill="white"/>
<path d="M9.78263 14.1304C9.61561 14.1304 9.44874 14.067 9.32168 13.9392C9.06693 13.6844 9.06693 13.2714 9.32168 13.0165L12.3391 9.99922L9.32168 6.9818C9.06693 6.72705 9.06693 6.31386 9.32168 6.05911C9.5766 5.80435 9.98962 5.80435 10.2444 6.05911L13.7226 9.53748C13.9773 9.79223 13.9773 10.2053 13.7226 10.46L10.2444 13.9382C10.1165 14.067 9.94965 14.1304 9.78263 14.1304Z" fill="white"/>
<path d="M10.4347 19.5653C6.47727 19.5653 2.98346 17.1844 1.53215 13.4991C1.39999 13.1652 1.56511 12.7861 1.89995 12.6539C2.23384 12.5235 2.6139 12.6861 2.74606 13.0227C3.99914 16.2044 7.01735 18.2609 10.4347 18.2609C14.9894 18.2609 18.6957 14.5547 18.6957 9.99999C18.6957 5.44529 14.9894 1.73907 10.4347 1.73907C7.01735 1.73907 3.99914 3.79558 2.74606 6.97732C2.61295 7.31392 2.23384 7.47648 1.89995 7.34608C1.56511 7.21393 1.39999 6.83482 1.53215 6.50093C2.98346 2.81557 6.47727 0.434723 10.4347 0.434723C15.7087 0.434723 20 4.72608 20 9.99999C20 15.2739 15.7087 19.5653 10.4347 19.5653Z" fill="white"/>
</g>
<defs>
<clipPath id="clip0_43_522">
<rect width="20" height="20" fill="white"/>
</clipPath>
</defs>
</svg>
