<svg width="20" height="20" viewBox="0 0 20 20" fill="none" xmlns="http://www.w3.org/2000/svg">
<g clip-path="url(#clip0_53_26)">
<path d="M13.2608 10.6522H0.652174C0.292173 10.6522 0 10.36 0 10C0 9.64 0.292173 9.34782 0.652174 9.34782H13.2608C13.6208 9.34782 13.913 9.64 13.913 10C13.913 10.36 13.6208 10.6522 13.2608 10.6522Z" fill="#292929"/>
<path d="M9.78287 14.1304C9.61585 14.1304 9.44899 14.067 9.32193 13.9392C9.06717 13.6844 9.06717 13.2714 9.32193 13.0165L12.3393 9.9992L9.32193 6.98179C9.06717 6.72703 9.06717 6.31385 9.32193 6.05909C9.57684 5.80434 9.98986 5.80434 10.2446 6.05909L13.7228 9.53746C13.9776 9.79222 13.9776 10.2052 13.7228 10.46L10.2446 13.9382C10.1168 14.067 9.9499 14.1304 9.78287 14.1304Z" fill="#292929"/>
<path d="M10.4345 19.5653C6.47702 19.5653 2.98321 17.1844 1.5319 13.4991C1.39975 13.1652 1.56486 12.7861 1.89971 12.6539C2.2336 12.5235 2.61366 12.6861 2.74581 13.0227C3.99889 16.2044 7.01711 18.2609 10.4345 18.2609C14.9892 18.2609 18.6954 14.5547 18.6954 9.99999C18.6954 5.44529 14.9892 1.73907 10.4345 1.73907C7.01711 1.73907 3.99889 3.79558 2.74581 6.97732C2.6127 7.31392 2.2336 7.47648 1.89971 7.34608C1.56486 7.21393 1.39975 6.83482 1.5319 6.50093C2.98321 2.81557 6.47702 0.434723 10.4345 0.434723C15.7084 0.434723 19.9998 4.72608 19.9998 9.99999C19.9998 15.2739 15.7084 19.5653 10.4345 19.5653Z" fill="#292929"/>
</g>
<defs>
<clipPath id="clip0_53_26">
<rect width="20" height="20" fill="white"/>
</clipPath>
</defs>
</svg>
