<svg width="16" height="17" viewBox="0 0 16 17" fill="none" xmlns="http://www.w3.org/2000/svg">
<g clip-path="url(#clip0_73_1758)">
<path d="M8 3.7312C4.94303 3.7312 2.17081 5.4037 0.125192 8.12028C-0.0417306 8.34284 -0.0417306 8.65378 0.125192 8.87634C2.17081 11.5962 4.94303 13.2687 8 13.2687C11.057 13.2687 13.8292 11.5962 15.8748 8.87961C16.0417 8.65705 16.0417 8.34611 15.8748 8.12355C13.8292 5.4037 11.057 3.7312 8 3.7312ZM8.21929 11.858C6.19004 11.9857 4.51427 10.3132 4.64191 8.28065C4.74665 6.60488 6.10494 5.24659 7.78071 5.14186C9.80996 5.01421 11.4857 6.68671 11.3581 8.71923C11.2501 10.3917 9.89179 11.75 8.21929 11.858ZM8.11783 10.3066C7.02465 10.3754 6.1213 9.4753 6.19331 8.38212C6.24895 7.47877 6.9821 6.7489 7.88545 6.68998C8.97862 6.62125 9.88197 7.52132 9.80996 8.6145C9.75105 9.52112 9.0179 10.251 8.11783 10.3066Z" fill="#E0E0E0"/>
</g>
<defs>
<clipPath id="clip0_73_1758">
<rect width="16" height="16" fill="white" transform="translate(0 0.5)"/>
</clipPath>
</defs>
</svg>
