<svg width="60" height="60" viewBox="0 0 60 60" fill="none" xmlns="http://www.w3.org/2000/svg">
<mask id="mask0_113_23013" style="mask-type:luminance" maskUnits="userSpaceOnUse" x="0" y="0" width="60" height="60">
<path d="M0 3.8147e-06H60V60H0V3.8147e-06Z" fill="white"/>
</mask>
<g mask="url(#mask0_113_23013)">
<path d="M55.6052 51.6797H4.39466C2.45309 51.6797 0.87915 50.1056 0.87915 48.1641V11.8359C0.87915 9.89438 2.45309 8.32032 4.39466 8.32032H55.6052C57.5468 8.32032 59.1209 9.89438 59.1209 11.8359V48.1641C59.1209 50.1056 57.5468 51.6797 55.6052 51.6797Z" fill="white"/>
<path d="M7.9104 51.6797L56.0896 15.8864V51.6797H7.9104Z" fill="white"/>
<path d="M7.9104 51.6797H4.39478C2.45321 51.6797 0.87915 50.1056 0.87915 48.1641V11.8359C0.87915 9.89438 2.45321 8.32032 4.39478 8.32032H7.9104V51.6797Z" fill="#FFC700"/>
<path d="M4.39453 51.6797H7.91016V8.32032H4.39453V51.6797Z" fill="#FFC700"/>
<path d="M52.0896 51.6797H55.6052C57.5468 51.6797 59.1208 50.1056 59.1208 48.1641V11.8359C59.1208 9.89438 57.5468 8.32032 55.6052 8.32032H52.0896V51.6797Z" fill="#FFC700"/>
<path d="M55.6052 8.32032H52.0896C54.0313 8.32032 55.6052 9.89438 55.6052 11.8359V48.1641C55.6052 50.1056 54.0313 51.6797 52.0896 51.6797H55.6052C57.5468 51.6797 59.1208 50.1056 59.1208 48.1641V11.8359C59.1208 9.89438 57.5468 8.32032 55.6052 8.32032Z" fill="#FFC700"/>
<path d="M4.39478 8.32027H55.6054V11.8391L30.0001 30.9014L4.39478 11.0066V8.32027Z" fill="white"/>
<path d="M58.4252 9.73977C57.2658 8.18223 55.0634 7.85961 53.5057 9.01918L29.9999 26.5186L6.49399 9.01918C4.93657 7.85973 2.73415 8.18235 1.57469 9.73977C0.415358 11.2972 0.737974 13.4996 2.29528 14.6592L27.9006 33.7214C28.5236 34.1852 29.2618 34.4171 29.9999 34.4171C30.7382 34.4171 31.4764 34.1852 32.0995 33.7214L57.7047 14.6592C59.2621 13.4996 59.5847 11.2972 58.4252 9.73977Z" fill="#FFC700"/>
<path d="M58.4252 9.73977C57.3485 8.29333 55.3724 7.9127 53.8485 8.79465C54.2513 9.02692 54.6143 9.34309 54.9096 9.73977C56.0692 11.2972 55.7466 13.4996 54.1891 14.6592L28.5839 33.7214C28.4738 33.8033 28.3589 33.8755 28.2422 33.943C28.7857 34.2573 29.3923 34.4171 30 34.4171C30.7383 34.4171 31.4764 34.1852 32.0995 33.7214L57.7048 14.6592C59.2622 13.4996 59.5848 11.2972 58.4252 9.73977Z" fill="#FFC700"/>
<path d="M59.1209 22.4489V48.1641C59.1209 50.1056 57.5468 51.6797 55.6052 51.6797H4.39466C2.45309 51.6797 0.87915 50.1056 0.87915 48.1641V45.0932" stroke="#292929" stroke-width="1.75781" stroke-miterlimit="10" stroke-linecap="round" stroke-linejoin="round"/>
<path d="M0.87915 41.1267V11.8359C0.87915 9.89425 2.4531 8.32031 4.39478 8.32031H55.6052C57.5468 8.32031 59.1209 9.89425 59.1209 11.8359V18.759" stroke="#292929" stroke-width="1.75781" stroke-miterlimit="10" stroke-linecap="round" stroke-linejoin="round"/>
<path d="M7.9104 19.2068V51.5476" stroke="#292929" stroke-width="1.75781" stroke-miterlimit="10" stroke-linecap="round" stroke-linejoin="round"/>
<path d="M52.0896 19.1015V51.5444" stroke="#292929" stroke-width="1.75781" stroke-miterlimit="10" stroke-linecap="round" stroke-linejoin="round"/>
<path d="M11.6459 12.8546L6.49402 9.01919C4.9366 7.85973 2.73418 8.18235 1.57473 9.73977C0.415392 11.2972 0.737892 13.4997 2.29531 14.6592L27.9007 33.7214C28.5235 34.1852 29.2618 34.4171 30 34.4171C30.7382 34.4171 31.4764 34.1852 32.0994 33.7214L57.7046 14.6592C59.262 13.4997 59.5846 11.2972 58.4252 9.73977C57.2659 8.18235 55.0633 7.85962 53.5058 9.01919L30 26.5187L14.6615 15.0997" stroke="#292929" stroke-width="1.75781" stroke-miterlimit="10" stroke-linecap="round" stroke-linejoin="round"/>
</g>
</svg>
