<svg width="32" height="32" viewBox="0 0 32 32" fill="none" xmlns="http://www.w3.org/2000/svg">
<path d="M28.4543 15.6413V13.921C28.4528 11.9497 27.983 10.0069 27.0834 8.25275C26.1839 6.49862 24.8804 4.98335 23.2803 3.83181L23.3735 3.685C23.4435 3.57463 23.4675 3.44122 23.4404 3.31335C23.4133 3.18547 23.3371 3.07331 23.2283 3.00088C21.0872 1.57393 18.5717 0.8125 15.9986 0.8125C13.4255 0.8125 10.91 1.57393 8.76889 3.00088C8.66007 3.07331 8.58395 3.18547 8.55682 3.31335C8.5297 3.44122 8.55373 3.57463 8.62377 3.685L8.71752 3.83269C7.11757 4.98414 5.8141 6.49926 4.9145 8.25322C4.0149 10.0072 3.54491 11.9498 3.54327 13.921V15.6419C2.9577 15.8306 2.44699 16.2 2.08445 16.6971C1.72191 17.1941 1.52619 17.7933 1.52539 18.4085V23.3335C1.52632 24.0171 1.76788 24.6785 2.2077 25.2018C2.64753 25.7251 3.25754 26.0769 3.93077 26.1954V27.1C3.93171 27.931 4.26224 28.7277 4.84985 29.3153C5.43745 29.9029 6.23415 30.2334 7.06514 30.2343H10.8755C10.9779 30.5135 11.1635 30.7546 11.4072 30.925C11.6509 31.0955 11.941 31.1871 12.2384 31.1875H14.0791C14.4642 31.1875 14.8336 31.0345 15.106 30.7621C15.3783 30.4898 15.5313 30.1204 15.5313 29.7353C15.5313 29.3501 15.3783 28.9807 15.106 28.7084C14.8336 28.436 14.4642 28.283 14.0791 28.283H12.2384C11.9413 28.2833 11.6514 28.3747 11.4078 28.5448C11.1642 28.7149 10.9785 28.9556 10.8759 29.2344H7.06527C6.49937 29.2338 5.95683 29.0087 5.55667 28.6086C5.15651 28.2084 4.93141 27.6659 4.93077 27.1V26.2394H5.74014C6.14811 26.2396 6.54057 26.0831 6.83652 25.8023C7.06284 26.0167 7.34704 26.1601 7.65399 26.2147C7.96093 26.2693 8.27715 26.2328 8.56355 26.1096C8.84994 25.9864 9.09396 25.782 9.26542 25.5216C9.43687 25.2613 9.52826 24.9563 9.52827 24.6446V17.0975C9.52827 16.7857 9.43689 16.4808 9.26544 16.2204C9.09399 15.96 8.84998 15.7556 8.56358 15.6324C8.27718 15.5092 7.96095 15.4727 7.654 15.5273C7.34705 15.5819 7.06284 15.7253 6.83652 15.9397C6.71285 15.8227 6.57132 15.7261 6.41727 15.6536V13.921C6.41955 12.4341 6.76809 10.9681 7.43526 9.63923C8.10243 8.31037 9.0699 7.15514 10.261 6.26506L10.3281 6.37075C10.3639 6.42721 10.4107 6.47591 10.4657 6.51397C10.5206 6.55203 10.5827 6.57867 10.6481 6.59233C10.7136 6.60599 10.7811 6.60639 10.8467 6.59349C10.9123 6.58059 10.9747 6.55467 11.0301 6.51725C12.497 5.52481 14.2274 4.99441 15.9985 4.99441C17.7696 4.99441 19.5001 5.52481 20.967 6.51725C21.0224 6.55472 21.0847 6.58069 21.1503 6.59362C21.216 6.60655 21.2835 6.60618 21.349 6.59254C21.4145 6.5789 21.4766 6.55226 21.5316 6.51419C21.5866 6.47613 21.6334 6.42742 21.6692 6.37094L21.7363 6.26525C22.9274 7.15534 23.8948 8.31057 24.562 9.63943C25.2292 10.9683 25.5777 12.4343 25.58 13.9212V15.6541C25.4264 15.7266 25.2853 15.8231 25.162 15.9399C24.9356 15.7255 24.6513 15.5821 24.3443 15.5275C24.0373 15.4729 23.721 15.5094 23.4345 15.6326C23.1481 15.7558 22.9039 15.9602 22.7324 16.2205C22.5608 16.4809 22.4693 16.7859 22.4691 17.0977V24.6446C22.4693 24.9564 22.5608 25.2613 22.7324 25.5217C22.904 25.7821 23.1481 25.9865 23.4346 26.1096C23.721 26.2328 24.0373 26.2693 24.3443 26.2147C24.6513 26.1601 24.9356 26.0167 25.162 25.8023C25.4575 26.0831 25.8496 26.2395 26.2572 26.2394H27.5683C28.3387 26.2385 29.0773 25.9321 29.622 25.3873C30.1668 24.8426 30.4732 24.104 30.4741 23.3336V18.4086C30.4733 17.793 30.2773 17.1935 29.9144 16.6963C29.5515 16.1991 29.0403 15.8297 28.4543 15.6413ZM12.2384 29.283H14.0791C14.199 29.283 14.3141 29.3306 14.3989 29.4155C14.4837 29.5003 14.5313 29.6153 14.5313 29.7353C14.5313 29.8552 14.4837 29.9702 14.3989 30.055C14.3141 30.1399 14.199 30.1875 14.0791 30.1875H12.2384C12.1184 30.1875 12.0034 30.1399 11.9186 30.055C11.8338 29.9702 11.7861 29.8552 11.7861 29.7353C11.7861 29.6153 11.8338 29.5003 11.9186 29.4155C12.0034 29.3306 12.1184 29.283 12.2384 29.283ZM5.74014 25.2394H4.43077C3.92549 25.2388 3.44106 25.0378 3.08377 24.6806C2.72649 24.3233 2.52552 23.8388 2.52495 23.3336V18.4086C2.5255 17.9033 2.72646 17.4188 3.08375 17.0615C3.44104 16.7042 3.92547 16.5032 4.43077 16.5026H5.74014C5.89809 16.5026 6.04961 16.5652 6.16146 16.6767C6.2733 16.7882 6.33635 16.9396 6.33677 17.0975V24.6446C6.33635 24.8025 6.2733 24.9538 6.16145 25.0653C6.0496 25.1769 5.89808 25.2394 5.74014 25.2394ZM7.93158 16.5026C8.08953 16.5026 8.24106 16.5652 8.35291 16.6767C8.46477 16.7882 8.52784 16.9395 8.52827 17.0975V24.6446C8.52827 24.8026 8.4655 24.9541 8.35377 25.0658C8.24205 25.1775 8.09052 25.2403 7.93252 25.2403C7.77451 25.2403 7.62298 25.1775 7.51126 25.0658C7.39953 24.9541 7.33677 24.8026 7.33677 24.6446V17.0975C7.33693 16.9398 7.39965 16.7886 7.51116 16.6771C7.62267 16.5655 7.77387 16.5028 7.93158 16.5026ZM5.41733 13.921V15.5026H4.54295V13.921C4.54476 12.1183 4.97248 10.3415 5.79125 8.73538C6.61002 7.12931 7.79668 5.7394 9.25452 4.67894L9.72383 5.41875C8.39065 6.39999 7.30644 7.6805 6.55845 9.15722C5.81047 10.634 5.41961 12.2656 5.41733 13.921ZM21.0936 5.41156C19.5559 4.48428 17.7943 3.99422 15.9987 3.99422C14.2031 3.99422 12.4415 4.48428 10.9038 5.41156L9.73552 3.57056C11.6223 2.42074 13.7891 1.8125 15.9986 1.8125C18.2081 1.8125 20.375 2.42074 22.2618 3.57056L21.0936 5.41156ZM22.2734 5.41856L22.7433 4.67806C24.2011 5.73865 25.3878 7.12872 26.2065 8.73496C27.0251 10.3412 27.4527 12.1182 27.4543 13.921V15.5026H26.5799V13.921C26.5776 12.2656 26.1867 10.634 25.4388 9.15722C24.6908 7.6805 23.6066 6.39999 22.2734 5.41875V5.41856ZM24.0656 25.2394C23.9077 25.2394 23.7562 25.1768 23.6443 25.0653C23.5325 24.9538 23.4694 24.8025 23.469 24.6446V17.0975C23.469 16.9393 23.5319 16.7875 23.6438 16.6756C23.7557 16.5637 23.9074 16.5009 24.0656 16.5009C24.2239 16.5009 24.3756 16.5637 24.4875 16.6756C24.5994 16.7875 24.6623 16.9393 24.6623 17.0975V24.6446C24.6619 24.8025 24.5988 24.9538 24.487 25.0653C24.3751 25.1769 24.2236 25.2394 24.0656 25.2394ZM29.474 23.3336C29.4734 23.8388 29.2724 24.3232 28.9152 24.6805C28.5579 25.0378 28.0735 25.2388 27.5683 25.2394H26.2571C26.0994 25.2392 25.9482 25.1765 25.8367 25.065C25.7252 24.9535 25.6624 24.8023 25.6623 24.6446V17.0975C25.6624 16.9398 25.7252 16.7886 25.8367 16.677C25.9482 16.5655 26.0994 16.5028 26.2571 16.5026H27.5683C28.0736 16.5032 28.558 16.7042 28.9153 17.0615C29.2725 17.4188 29.4735 17.9032 29.4741 18.4085L29.474 23.3336Z" fill="#292929"/>
<path d="M26.58 13.9209V15.5025H27.4544V13.9209C27.4528 12.1181 27.0252 10.3411 26.2065 8.73486C25.3878 7.12862 24.2012 5.73856 22.7433 4.67798L22.2734 5.41867C23.6066 6.3999 24.6909 7.6804 25.4388 9.15713C26.1868 10.6339 26.5777 12.2656 26.58 13.9209Z" fill="#FFC700"/>
<path d="M4.54297 15.5026H5.41734V13.921C5.41963 12.2657 5.81049 10.634 6.55847 9.15724C7.30645 7.68051 8.39066 6.4 9.72384 5.41877L9.25453 4.67896C7.79669 5.73942 6.61004 7.12932 5.79127 8.7354C4.9725 10.3415 4.54478 12.1183 4.54297 13.921V15.5026Z" fill="#FFC700"/>
<path d="M16.0001 3.99432C17.7957 3.99243 19.5575 4.48259 21.0941 5.41157L22.2626 3.57057C20.3758 2.42074 18.209 1.8125 15.9995 1.8125C13.7899 1.8125 11.6231 2.42074 9.73633 3.57057L10.9046 5.41175C12.4418 4.48292 14.204 3.99271 16.0001 3.99432Z" fill="#2F80ED"/>
<path d="M12.2384 30.1875H14.0791C14.199 30.1875 14.314 30.1398 14.3989 30.055C14.4837 29.9702 14.5313 29.8552 14.5313 29.7352C14.5313 29.6153 14.4837 29.5002 14.3989 29.4154C14.314 29.3306 14.199 29.283 14.0791 29.283H12.2384C12.1184 29.283 12.0034 29.3306 11.9186 29.4154C11.8338 29.5002 11.7861 29.6153 11.7861 29.7352C11.7861 29.8552 11.8338 29.9702 11.9186 30.055C12.0034 30.1398 12.1184 30.1875 12.2384 30.1875Z" fill="#2F80ED"/>
<path d="M7.93173 25.2393C8.08967 25.2394 8.2412 25.1768 8.35306 25.0653C8.46492 24.9538 8.52798 24.8025 8.52841 24.6445V17.0975C8.52841 16.9395 8.46565 16.7879 8.35392 16.6762C8.2422 16.5645 8.09067 16.5017 7.93266 16.5017C7.77466 16.5017 7.62313 16.5645 7.5114 16.6762C7.39968 16.7879 7.33691 16.9395 7.33691 17.0975V24.6445C7.3371 24.8022 7.39982 24.9534 7.51133 25.0649C7.62284 25.1764 7.77403 25.2392 7.93173 25.2393Z" fill="#2F80ED"/>
<path d="M25.6621 17.0976V24.6446C25.6623 24.8023 25.725 24.9535 25.8365 25.065C25.9481 25.1766 26.0993 25.2393 26.257 25.2394H27.5684C28.0736 25.2389 28.5581 25.0379 28.9153 24.6806C29.2726 24.3233 29.4736 23.8389 29.4742 23.3336V18.4086C29.4736 17.9033 29.2727 17.4189 28.9154 17.0616C28.5581 16.7043 28.0737 16.5033 27.5684 16.5027H26.2572C26.0995 16.5028 25.9482 16.5655 25.8366 16.677C25.725 16.7885 25.6623 16.9398 25.6621 17.0976Z" fill="#FFC700"/>
<path d="M24.0664 16.5027C23.9085 16.5026 23.7569 16.5652 23.6451 16.6768C23.5332 16.7883 23.4702 16.9396 23.4697 17.0976V24.6446C23.4697 24.8029 23.5326 24.9546 23.6445 25.0665C23.7564 25.1784 23.9081 25.2412 24.0664 25.2412C24.2246 25.2412 24.3763 25.1784 24.4882 25.0665C24.6001 24.9546 24.663 24.8029 24.663 24.6446V17.0976C24.6626 16.9396 24.5995 16.7883 24.4877 16.6768C24.3759 16.5653 24.2244 16.5027 24.0664 16.5027Z" fill="#2F80ED"/>
<path d="M5.74058 16.5027H4.4312C3.92592 16.5033 3.44149 16.7042 3.08421 17.0615C2.72692 17.4188 2.52595 17.9033 2.52539 18.4086V23.3336C2.52594 23.8389 2.7269 24.3233 3.08419 24.6806C3.44148 25.0379 3.92591 25.2389 4.4312 25.2394H5.74058C5.89852 25.2395 6.05004 25.1769 6.16189 25.0654C6.27374 24.9539 6.33679 24.8026 6.3372 24.6446V17.0976C6.33679 16.9396 6.27374 16.7883 6.16189 16.6768C6.05004 16.5652 5.89853 16.5026 5.74058 16.5027Z" fill="#FFC700"/>
</svg>
