<svg width="61" height="60" viewBox="0 0 61 60" fill="none" xmlns="http://www.w3.org/2000/svg">
<g clip-path="url(#clip0_58_14467)">
<path d="M1.36332 7.43481H36.5021V55.4103H1.36332V7.43481Z" fill="#FFC700"/>
<path d="M6.8573 2.2276H41.9961V50.2064H6.8573V2.2276Z" fill="white"/>
<path fill-rule="evenodd" clip-rule="evenodd" d="M50.0938 33.6059V54.4578C50.0938 56.02 46.4455 57.2855 41.9436 57.2855C37.4449 57.2855 33.7966 56.0199 33.7966 54.4578V33.6059C33.7966 32.0437 37.4449 30.7782 41.9436 30.7782C46.4455 30.7782 50.0938 32.0438 50.0938 33.6059Z" fill="#FFC700"/>
<path fill-rule="evenodd" clip-rule="evenodd" d="M41.9434 57.2855C37.4446 57.2855 33.7964 56.0199 33.7964 54.4578V33.6059C33.7964 32.0437 37.4446 30.7782 41.9434 30.7782V57.2855Z" fill="#FFC700"/>
<path fill-rule="evenodd" clip-rule="evenodd" d="M50.0938 38.8263V44.0468C50.0938 47.7511 33.7966 47.7511 33.7966 44.0468V38.8263C33.7966 42.5307 50.0938 42.5307 50.0938 38.8263Z" fill="white"/>
<path fill-rule="evenodd" clip-rule="evenodd" d="M41.9434 46.825C37.8698 46.825 33.7964 45.8993 33.7964 44.0468V38.8263C33.7964 40.6786 37.8698 41.6046 41.9434 41.6046V46.825Z" fill="white"/>
<path fill-rule="evenodd" clip-rule="evenodd" d="M50.0938 44.0665V49.2869C50.0938 52.9912 33.7966 52.9912 33.7966 49.2869V44.0665C33.7966 47.7709 50.0938 47.7709 50.0938 44.0665Z" fill="#FFC700"/>
<path fill-rule="evenodd" clip-rule="evenodd" d="M41.9434 52.0652C37.8698 52.0652 33.7964 51.1394 33.7964 49.2869V44.0665C33.7964 45.9187 37.8698 46.8447 41.9434 46.8447V52.0652Z" fill="#FFC700"/>
<path fill-rule="evenodd" clip-rule="evenodd" d="M41.9434 36.4336C46.4316 36.4336 50.0935 35.1614 50.0935 33.6059C50.0935 32.0473 46.4321 30.7781 41.9434 30.7781C37.4546 30.7781 33.7964 32.047 33.7964 33.6059C33.7964 35.1614 37.4546 36.4336 41.9434 36.4336Z" fill="#FFC700"/>
<path fill-rule="evenodd" clip-rule="evenodd" d="M41.9434 36.4336C37.4446 36.4336 33.7964 35.168 33.7964 33.6059C33.7964 32.0438 37.4446 30.7781 41.9434 30.7781V36.4336Z" fill="#FFC700"/>
<path fill-rule="evenodd" clip-rule="evenodd" d="M50.0938 49.2869V54.5106C50.0938 58.2117 33.7966 58.2117 33.7966 54.5106V49.2869C33.7966 52.9912 50.0938 52.9912 50.0938 49.2869Z" fill="white"/>
<path fill-rule="evenodd" clip-rule="evenodd" d="M41.9434 57.2856C37.8698 57.2856 33.7964 56.3598 33.7964 54.5106V49.2869C33.7964 51.1391 37.8698 52.0652 41.9434 52.0652V57.2856Z" fill="white"/>
<path fill-rule="evenodd" clip-rule="evenodd" d="M11.8272 50.2064V7.43483V2.2276H6.8573V7.43483V50.2064H11.8272Z" fill="white"/>
<path d="M10.0932 44.9946C10.0932 44.777 10.1796 44.5684 10.3335 44.4145C10.4873 44.2607 10.696 44.1743 10.9135 44.1743H26.4092C26.6268 44.1743 26.8354 44.2607 26.9893 44.4145C27.1431 44.5684 27.2295 44.777 27.2295 44.9946C27.2295 45.2121 27.1431 45.4208 26.9893 45.5746C26.8354 45.7285 26.6268 45.8149 26.4092 45.8149H10.9136C10.8059 45.8149 10.6992 45.7937 10.5997 45.7525C10.5001 45.7113 10.4097 45.6509 10.3335 45.5747C10.2573 45.4985 10.1969 45.4081 10.1557 45.3085C10.1144 45.209 10.0932 45.1023 10.0932 44.9946ZM10.9135 39.5934H26.4092C26.6268 39.5934 26.8354 39.507 26.9893 39.3531C27.1431 39.1993 27.2295 38.9907 27.2295 38.7731C27.2295 38.5555 27.1431 38.3469 26.9893 38.1931C26.8354 38.0392 26.6268 37.9528 26.4092 37.9528H10.9136C10.6961 37.9528 10.4874 38.0392 10.3336 38.1931C10.1797 38.3469 10.0933 38.5555 10.0933 38.7731C10.0933 38.9907 10.1797 39.1993 10.3336 39.3531C10.4874 39.507 10.696 39.5934 10.9135 39.5934ZM10.9135 33.3685H16.6302C16.8477 33.3685 17.0564 33.2821 17.2102 33.1283C17.364 32.9744 17.4505 32.7658 17.4505 32.5482C17.4505 32.3307 17.364 32.122 17.2102 31.9682C17.0564 31.8143 16.8477 31.7279 16.6302 31.7279H10.9136C10.6961 31.7279 10.4874 31.8143 10.3336 31.9682C10.1797 32.122 10.0933 32.3307 10.0933 32.5482C10.0933 32.7658 10.1797 32.9744 10.3336 33.1283C10.4874 33.2821 10.696 33.3685 10.9135 33.3685ZM10.9135 27.1436H16.6302C16.8477 27.1436 17.0564 27.0572 17.2102 26.9034C17.364 26.7495 17.4505 26.5409 17.4505 26.3233C17.4505 26.1058 17.364 25.8971 17.2102 25.7433C17.0564 25.5894 16.8477 25.503 16.6302 25.503H10.9136C10.6961 25.503 10.4874 25.5894 10.3336 25.7433C10.1797 25.8971 10.0933 26.1058 10.0933 26.3233C10.0933 26.5409 10.1797 26.7495 10.3336 26.9034C10.4874 27.0572 10.696 27.1436 10.9135 27.1436ZM10.9135 20.9189H16.6302C16.8477 20.9189 17.0564 20.8325 17.2102 20.6786C17.364 20.5248 17.4505 20.3161 17.4505 20.0986C17.4505 19.881 17.364 19.6724 17.2102 19.5185C17.0564 19.3647 16.8477 19.2783 16.6302 19.2783H10.9136C10.6961 19.2783 10.4874 19.3647 10.3336 19.5185C10.1797 19.6724 10.0933 19.881 10.0933 20.0986C10.0933 20.3161 10.1797 20.5248 10.3336 20.6786C10.4874 20.8325 10.696 20.9189 10.9135 20.9189ZM10.9135 14.6939H16.6302C16.8477 14.6939 17.0564 14.6075 17.2102 14.4536C17.364 14.2998 17.4505 14.0911 17.4505 13.8736C17.4505 13.656 17.364 13.4474 17.2102 13.2935C17.0564 13.1397 16.8477 13.0533 16.6302 13.0533H10.9136C10.6961 13.0533 10.4874 13.1397 10.3336 13.2935C10.1797 13.4474 10.0933 13.656 10.0933 13.8736C10.0933 14.0911 10.1797 14.2998 10.3336 14.4536C10.4874 14.6075 10.696 14.6939 10.9135 14.6939ZM10.9135 8.46911H16.6302C16.8477 8.46911 17.0564 8.38269 17.2102 8.22885C17.364 8.07501 17.4505 7.86636 17.4505 7.6488C17.4505 7.43124 17.364 7.22259 17.2102 7.06875C17.0564 6.91491 16.8477 6.82849 16.6302 6.82849H10.9136C10.6961 6.82849 10.4874 6.91491 10.3336 7.06875C10.1797 7.22259 10.0933 7.43124 10.0933 7.6488C10.0933 7.86636 10.1797 8.07501 10.3336 8.22885C10.4874 8.38269 10.696 8.46911 10.9135 8.46911ZM20.9484 33.3685H26.4093C26.6269 33.3685 26.8355 33.2821 26.9894 33.1283C27.1432 32.9744 27.2296 32.7658 27.2296 32.5482C27.2296 32.3307 27.1432 32.122 26.9894 31.9682C26.8355 31.8143 26.6269 31.7279 26.4093 31.7279H20.9484C20.7308 31.7279 20.5222 31.8143 20.3684 31.9682C20.2145 32.122 20.1281 32.3307 20.1281 32.5482C20.1281 32.7658 20.2145 32.9744 20.3684 33.1283C20.5222 33.2821 20.7308 33.3685 20.9484 33.3685ZM20.9484 27.1436H28.6016H36.2548C36.4724 27.1436 36.6811 27.0572 36.8349 26.9034C36.9887 26.7495 37.0752 26.5409 37.0752 26.3233C37.0752 26.1058 36.9887 25.8971 36.8349 25.7433C36.6811 25.5894 36.4724 25.503 36.2548 25.503H20.9485C20.731 25.503 20.5223 25.5894 20.3685 25.7433C20.2146 25.8971 20.1282 26.1058 20.1282 26.3233C20.1282 26.5409 20.2146 26.7495 20.3685 26.9034C20.5223 27.0572 20.7308 27.1436 20.9484 27.1436ZM20.9484 20.9189H36.2548C36.4724 20.9189 36.6811 20.8325 36.8349 20.6786C36.9887 20.5248 37.0752 20.3161 37.0752 20.0986C37.0752 19.881 36.9887 19.6724 36.8349 19.5185C36.6811 19.3647 36.4724 19.2783 36.2548 19.2783H20.9485C20.731 19.2783 20.5223 19.3647 20.3685 19.5185C20.2146 19.6724 20.1282 19.881 20.1282 20.0986C20.1282 20.3161 20.2146 20.5248 20.3685 20.6786C20.5223 20.8325 20.7308 20.9189 20.9484 20.9189ZM20.9484 14.6939H36.2548C36.4724 14.6939 36.6811 14.6075 36.8349 14.4536C36.9887 14.2998 37.0752 14.0911 37.0752 13.8736C37.0752 13.656 36.9887 13.4474 36.8349 13.2935C36.6811 13.1397 36.4724 13.0533 36.2548 13.0533H20.9485C20.731 13.0533 20.5223 13.1397 20.3685 13.2935C20.2146 13.4474 20.1282 13.656 20.1282 13.8736C20.1282 14.0911 20.2146 14.2998 20.3685 14.4536C20.5223 14.6075 20.7308 14.6939 20.9484 14.6939ZM20.9484 8.46911H36.2548C36.4724 8.46911 36.6811 8.38269 36.8349 8.22885C36.9887 8.07501 37.0752 7.86636 37.0752 7.6488C37.0752 7.43124 36.9887 7.22259 36.8349 7.06875C36.6811 6.91491 36.4724 6.82849 36.2548 6.82849H20.9485C20.731 6.82849 20.5223 6.91491 20.3685 7.06875C20.2146 7.22259 20.1282 7.43124 20.1282 7.6488C20.1282 7.86636 20.2146 8.07501 20.3685 8.22885C20.5223 8.38269 20.7308 8.46911 20.9484 8.46911ZM50.5793 33.576C50.5828 33.6063 50.5846 33.6369 50.5846 33.6675V54.7637C50.5846 57.4057 45.9766 58.3469 41.6642 58.3469C39.4638 58.3469 37.4015 58.0891 35.8575 57.621C34.5187 57.215 33.7311 56.6945 33.2826 56.1655H1.32031C1.10275 56.1655 0.894102 56.0791 0.740264 55.9252C0.586426 55.7714 0.5 55.5627 0.5 55.3452V7.64857C0.5 7.43101 0.586426 7.22236 0.740264 7.06852C0.894102 6.91468 1.10275 6.82825 1.32031 6.82825H5.96422V2.47345C5.96422 2.25589 6.05064 2.04724 6.20448 1.8934C6.35832 1.73956 6.56697 1.65314 6.78453 1.65314H41.7191C41.9366 1.65314 42.1453 1.73956 42.2991 1.8934C42.453 2.04724 42.5394 2.25589 42.5394 2.47345V30.0534C46.6111 30.204 50.4725 31.4073 50.5793 33.576ZM48.9438 46.3182C47.2188 47.2568 44.383 47.6307 41.6642 47.6307C39.4638 47.6307 37.4015 47.3729 35.8575 46.9047C35.3474 46.7562 34.8539 46.556 34.3846 46.3071V49.2602C34.3846 50.0531 36.9771 51.2 41.6642 51.2C46.3514 51.2 48.9438 50.0531 48.9438 49.2602V46.3182ZM48.9438 35.9368C47.2188 36.8743 44.3827 37.2484 41.6642 37.2484C39.4639 37.2484 37.4018 36.9906 35.8577 36.523C35.3477 36.3746 34.8541 36.1746 34.3846 35.926V38.8593C34.3846 39.6522 36.9771 40.7992 41.6642 40.7992C46.3514 40.7992 48.9438 39.6522 48.9438 38.8593V35.9368ZM48.9438 41.1282C47.2188 42.0657 44.383 42.4407 41.6642 42.4407C39.4639 42.4407 37.4018 42.1829 35.8577 41.7154C35.3476 41.5669 34.854 41.3666 34.3846 41.1178V44.0485C34.3846 44.8424 36.9771 45.9909 41.6642 45.9909C46.3514 45.9909 48.9438 44.8425 48.9438 44.0485V41.1282ZM41.6664 31.6779C36.8625 31.6779 34.3851 33.0724 34.3851 33.6676C34.3851 34.4605 36.9775 35.6075 41.6647 35.6075C46.3518 35.6075 48.9443 34.4605 48.9443 33.6676C48.9438 33.0725 46.4682 31.6779 41.6664 31.6779ZM7.60508 49.3493H32.7438V33.6679C32.7439 33.6373 32.7457 33.6067 32.7492 33.5763C32.857 31.3889 36.7866 30.1837 40.8986 30.0502V3.29388H7.60508V49.3493ZM2.14062 54.5245H32.7438V50.9901H6.78465C6.56709 50.9901 6.35844 50.9037 6.2046 50.7499C6.05076 50.596 5.96434 50.3874 5.96434 50.1698V8.46911H2.14062V54.5245ZM48.9436 54.7637V51.5284C47.2186 52.4659 44.3827 52.8409 41.664 52.8409C39.4637 52.8409 37.4015 52.5831 35.8575 52.1156C35.3474 51.967 34.8538 51.7668 34.3844 51.5179V54.764C34.3851 54.7971 34.3899 54.83 34.3986 54.8619C34.4492 54.9306 34.4888 55.0069 34.5158 55.0879C35.0943 55.8369 37.5861 56.7064 41.6642 56.7064C46.3515 56.7061 48.9436 55.5575 48.9436 54.7637ZM46.3438 27.87C46.4199 27.9462 46.5104 28.0066 46.6099 28.0478C46.7094 28.089 46.8161 28.1103 46.9238 28.1103C47.0316 28.1103 47.1382 28.089 47.2378 28.0478C47.3373 28.0066 47.4277 27.9462 47.5039 27.87L58.8477 16.5262C58.9238 16.45 58.9843 16.3596 59.0255 16.2601C59.0667 16.1606 59.0879 16.0539 59.0879 15.9461C59.0879 15.8384 59.0667 15.7317 59.0255 15.6322C58.9843 15.5327 58.9238 15.4422 58.8477 15.3661C58.7715 15.2899 58.681 15.2295 58.5815 15.1882C58.482 15.147 58.3753 15.1258 58.2676 15.1258C58.1598 15.1258 58.0532 15.147 57.9536 15.1882C57.8541 15.2295 57.7637 15.2899 57.6875 15.3661L52.0156 21.0379L46.3438 26.7098C46.2676 26.786 46.2071 26.8764 46.1659 26.976C46.1247 27.0755 46.1035 27.1822 46.1035 27.2899C46.1035 27.3976 46.1247 27.5043 46.1659 27.6038C46.2071 27.7034 46.2676 27.7938 46.3438 27.87ZM44.6914 17.5672C44.6911 16.8703 44.8974 16.189 45.2844 15.6095C45.6714 15.0299 46.2215 14.5782 46.8653 14.3114C47.509 14.0445 48.2175 13.9746 48.9009 14.1105C49.5844 14.2464 50.2122 14.5819 50.705 15.0747C51.1977 15.5675 51.5333 16.1953 51.6691 16.8788C51.805 17.5623 51.7351 18.2707 51.4682 18.9145C51.2014 19.5582 50.7496 20.1083 50.17 20.4953C49.5905 20.8822 48.9092 21.0886 48.2123 21.0882C47.2789 21.087 46.3842 20.7156 45.7242 20.0555C45.0643 19.3954 44.6924 18.5006 44.6914 17.5672ZM46.332 17.5672C46.3317 17.9395 46.4418 18.3036 46.6484 18.6133C46.8551 18.9231 47.149 19.1645 47.4929 19.3072C47.8368 19.4498 48.2153 19.4872 48.5805 19.4147C48.9457 19.3421 49.2812 19.1629 49.5445 18.8996C49.8077 18.6363 49.987 18.3008 50.0596 17.9356C50.1321 17.5704 50.0947 17.1919 49.952 16.848C49.8094 16.5041 49.5679 16.2102 49.2582 16.0036C48.9485 15.7969 48.5844 15.6868 48.2121 15.6872C47.7138 15.688 47.2362 15.8863 46.8839 16.2388C46.5317 16.5912 46.3326 17.0689 46.332 17.5672ZM60.5 25.6688C60.5004 26.3656 60.2943 27.0468 59.9075 27.6264C59.5208 28.2059 58.9709 28.6578 58.3273 28.9248C57.6838 29.1918 56.9755 29.262 56.2921 29.1264C55.6086 28.9909 54.9808 28.6557 54.4878 28.1633C53.9949 27.6709 53.659 27.0434 53.5227 26.3601C53.3864 25.6768 53.4558 24.9685 53.7222 24.3247C53.9885 23.6808 54.4397 23.1304 55.0188 22.743C55.598 22.3557 56.279 22.1487 56.9757 22.1484C57.9095 22.149 58.805 22.52 59.4657 23.18C60.1264 23.8399 60.4984 24.735 60.5 25.6688ZM58.8594 25.6688C58.8597 25.2967 58.7496 24.9327 58.5431 24.6231C58.3366 24.3135 58.043 24.072 57.6992 23.9293C57.3555 23.7865 56.9772 23.749 56.6121 23.8212C56.247 23.8935 55.9115 24.0725 55.6481 24.3354C55.3847 24.5984 55.2052 24.9335 55.1323 25.2985C55.0593 25.6634 55.0963 26.0418 55.2384 26.3858C55.3805 26.7298 55.6215 27.0239 55.9307 27.2309C56.24 27.438 56.6038 27.5487 56.9759 27.549C57.4748 27.5489 57.9533 27.3509 58.3064 26.9984C58.6595 26.6459 58.8584 26.1678 58.8594 25.6688Z" fill="#292929"/>
<path fill-rule="evenodd" clip-rule="evenodd" d="M1.3054 2.71938C1.68901 2.32206 2.32208 2.31096 2.7194 2.69457L59.2806 57.3054C59.6779 57.689 59.689 58.3221 59.3054 58.7194C58.9218 59.1167 58.2887 59.1278 57.8914 58.7442L1.33021 4.13337C0.932892 3.74976 0.921786 3.11669 1.3054 2.71938Z" fill="#292929"/>
</g>
<defs>
<clipPath id="clip0_58_14467">
<rect width="60" height="60" fill="white" transform="translate(0.5)"/>
</clipPath>
</defs>
</svg>
