<svg width="61" height="60" viewBox="0 0 61 60" fill="none" xmlns="http://www.w3.org/2000/svg">
<g clip-path="url(#clip0_58_14430)">
<path d="M46.9909 22.7013C46.9909 34.1844 37.6818 43.4935 26.1982 43.4935C14.7151 43.4935 5.40607 34.1844 5.40607 22.7013C5.40607 11.2182 14.7151 1.90912 26.1982 1.90912C37.6818 1.90912 46.9909 11.2182 46.9909 22.7013Z" fill="white"/>
<path fill-rule="evenodd" clip-rule="evenodd" d="M26.1982 42.4935C37.1295 42.4935 45.9909 33.6321 45.9909 22.7013C45.9909 11.7705 37.1295 2.90912 26.1982 2.90912C15.2674 2.90912 6.40607 11.7705 6.40607 22.7013C6.40607 33.6321 15.2674 42.4935 26.1982 42.4935ZM26.1982 43.4935C37.6818 43.4935 46.9909 34.1844 46.9909 22.7013C46.9909 11.2182 37.6818 1.90912 26.1982 1.90912C14.7151 1.90912 5.40607 11.2182 5.40607 22.7013C5.40607 34.1844 14.7151 43.4935 26.1982 43.4935Z" fill="#292929"/>
<path d="M52.6764 24.1294V27.9672H16.2874C14.7103 27.9672 13.4326 26.6895 13.4326 25.1139C13.4326 24.3261 13.7521 23.6123 14.2691 23.0962C14.7853 22.5786 15.4995 22.2597 16.2874 22.2597H50.8067C51.8395 22.2597 52.6764 23.0967 52.6764 24.1294Z" fill="white"/>
<path d="M25.7454 31.9973C21.2786 31.9973 17.6575 28.3757 17.6575 23.9093C17.6575 19.443 21.2786 15.8214 25.7454 15.8214C30.2117 15.8214 33.8328 19.443 33.8328 23.9093C33.8328 28.3757 30.2117 31.9973 25.7454 31.9973Z" fill="white"/>
<path d="M31.4758 23.9093C31.4758 27.0742 28.9103 29.6396 25.7454 29.6396C22.5806 29.6396 20.0146 27.0742 20.0146 23.9093C20.0146 20.7444 22.5806 18.179 25.7454 18.179C28.9103 18.179 31.4758 20.7444 31.4758 23.9093Z" fill="#FFC700"/>
<path d="M55.0647 29.8368V57.507C55.0647 58.5397 54.2277 59.3767 53.195 59.3767H15.3024C14.2696 59.3767 13.4326 58.5397 13.4326 57.507V25.1139C13.4326 26.6895 14.7103 27.9671 16.2874 27.9671H53.195C54.2277 27.9671 55.0647 28.8046 55.0647 29.8368Z" fill="white"/>
<path d="M49.1123 56.0589H19.3855C17.8834 56.0589 16.6661 54.8417 16.6661 53.3396V34.4093C16.6661 32.9073 17.8834 31.69 19.3855 31.69H49.1123C50.6144 31.69 51.8316 32.9077 51.8316 34.4093V53.3396C51.8316 54.8417 50.6144 56.0589 49.1123 56.0589Z" fill="#FFC700"/>
<path d="M43.7807 55.5604H49.1478C50.63 55.5604 51.8316 54.3587 51.8316 52.877C51.8316 51.3944 50.63 50.1932 49.1478 50.1932H43.7807C42.2986 50.1932 41.0969 51.3949 41.0969 52.877C41.0969 54.3587 42.2986 55.5604 43.7807 55.5604Z" fill="white"/>
<path d="M21.7986 41.5492L25.7454 48.3839L29.6917 41.5492H27.7237L27.7037 32.3458H23.7462L23.7666 41.5492H21.7986Z" fill="white"/>
<path d="M54.346 10.091C54.346 4.86268 50.1066 0.62323 44.8782 0.62323C39.6499 0.62323 35.4104 4.86268 35.4104 10.091C35.4104 14.6333 38.6113 18.4278 42.8795 19.3451L42.8994 34.0237H40.9314L44.8782 40.8579L48.8245 34.0237H46.857L46.837 19.3543C51.1256 18.4521 54.346 14.6475 54.346 10.091Z" fill="white"/>
<path d="M44.8782 16.7991C41.1739 16.7991 38.1702 13.7954 38.1702 10.091C38.1702 6.38669 41.1739 3.383 44.8782 3.383C48.5826 3.383 51.5863 6.38669 51.5863 10.091C51.5863 13.7954 48.5826 16.7991 44.8782 16.7991Z" fill="#FFC700"/>
<path d="M53.2996 27.3463V24.1289C53.2996 22.7544 52.1817 21.636 50.8067 21.636H47.4627L47.4602 19.8461C51.7766 18.7043 54.9687 14.7633 54.9687 10.0915C54.9687 4.52721 50.4415 0 44.8787 0C39.3144 0 34.7872 4.52721 34.7872 10.0915C34.7872 14.7492 37.9593 18.6785 42.2562 19.8349L42.2587 21.636H34.1542C33.1521 17.9316 29.7614 15.1982 25.7454 15.1982C21.728 15.1982 18.3377 17.9316 17.3356 21.636H16.2873C15.3573 21.636 14.4834 21.9987 13.829 22.6546C13.1712 23.3104 12.8094 24.1839 12.8094 25.1139V57.507C12.8094 58.882 13.9278 59.9999 15.3023 59.9999H53.195C54.57 59.9999 55.6879 58.882 55.6879 57.507V29.8369C55.6879 28.4969 54.626 27.4009 53.2996 27.3463ZM47.469 25.7371H52.0532V27.3439H47.47L47.469 25.7371ZM50.8067 22.8824C51.4937 22.8824 52.0532 23.4424 52.0532 24.1289V24.4907H47.4666L47.4651 22.8824H50.8067ZM36.0336 10.0915C36.0336 5.21374 40.0014 1.24647 44.8787 1.24647C49.755 1.24647 53.7223 5.21374 53.7223 10.0915C53.7223 14.1299 51.0015 17.544 47.2966 18.5987C46.5278 18.8178 45.7162 18.9351 44.8787 18.9351C44.0412 18.9351 43.2295 18.8178 42.4607 18.5987C38.7549 17.544 36.0336 14.1299 36.0336 10.0915ZM43.5037 20.0881C43.9536 20.149 44.4127 20.1816 44.8787 20.1816C45.331 20.1816 45.7775 20.1519 46.2147 20.093L46.2172 21.636L46.2186 22.8824L46.2211 24.4907L46.2225 25.7371L46.225 27.3439L46.2259 28.5904L46.2347 34.647H47.7456L44.8787 39.6114L42.0103 34.647H43.5236L43.5149 28.5904L43.5139 27.3439L43.5115 25.7371L43.51 24.4907L43.5076 22.8824L43.5061 21.636L43.5037 20.0881ZM42.2611 22.8824L42.2626 24.4907H36.8117V25.7371H42.265L42.2665 27.3439H33.7491C34.2043 26.2893 34.4561 25.129 34.4561 23.9098C34.4561 23.5617 34.4361 23.2189 34.3947 22.8824H42.2611ZM25.7454 16.4446C29.0685 16.4446 31.8916 18.6284 32.8551 21.636C32.9837 22.0386 33.0796 22.4549 33.138 22.8824C33.1857 23.2194 33.2091 23.5621 33.2091 23.9098C33.2091 25.1475 32.9063 26.3156 32.3716 27.3439H27.1939C27.7709 26.8677 28.1049 26.1111 28.0314 25.296C27.9204 24.0408 26.951 23.588 25.9202 23.2851C25.4737 23.1546 25.1908 23.0212 25.0102 22.8824C24.737 22.676 24.6986 22.4627 24.6922 22.2456C24.6859 22.0201 24.7433 21.8093 24.8519 21.636C24.9766 21.432 25.1694 21.2771 25.4089 21.206C25.4737 21.1861 25.5385 21.1724 25.6022 21.1651C25.8637 21.1315 26.1208 21.2114 26.3238 21.392C26.4047 21.4631 26.4733 21.5454 26.5259 21.636C26.6169 21.7884 26.6651 21.9641 26.6651 22.1448H27.9116C27.9116 21.9714 27.8917 21.8005 27.8532 21.636C27.7485 21.1827 27.5031 20.7688 27.1477 20.4557C26.9174 20.2537 26.6515 20.1042 26.3677 20.0131V19.4897H25.1212V19.9922C25.0983 19.9985 25.0759 20.0044 25.0535 20.0107C24.2847 20.24 23.7111 20.8686 23.5168 21.636C23.4657 21.8419 23.4409 22.0586 23.4467 22.2806C23.4531 22.5027 23.4881 22.7033 23.5456 22.8824C23.8947 23.9896 25.0798 24.3388 25.5686 24.4819C26.6564 24.8008 26.7586 25.0555 26.7898 25.4065C26.8409 25.9791 26.4845 26.4889 25.9626 26.5897C25.9348 26.5946 25.9075 26.5994 25.8812 26.6033C25.6207 26.6345 25.3651 26.5532 25.1635 26.374C24.9478 26.1831 24.8242 25.9076 24.8256 25.6213V25.5614L23.5792 25.5575V25.6174C23.5767 26.262 23.8533 26.8775 24.3358 27.3064C24.3504 27.3191 24.3645 27.3313 24.3791 27.3439H19.1182C18.5831 26.3156 18.2802 25.1475 18.2802 23.9098C18.2802 23.5617 18.3041 23.2189 18.3513 22.8824C18.4102 22.4549 18.5061 22.0386 18.6342 21.636C19.5978 18.6284 22.4223 16.4446 25.7454 16.4446ZM14.7103 23.5359C15.1304 23.1147 15.6904 22.8829 16.2873 22.8829H17.0951C17.0537 23.2194 17.0337 23.5621 17.0337 23.9098C17.0337 25.129 17.2855 26.2893 17.7407 27.3439H16.2873C15.0569 27.3439 14.0559 26.3443 14.0559 25.1139C14.0559 24.5179 14.2881 23.957 14.7103 23.5359ZM54.4414 57.507C54.4414 58.1955 53.882 58.7535 53.195 58.7535H15.3023C14.6158 58.7535 14.0559 58.1955 14.0559 57.507V27.7787C14.0622 27.7836 14.0671 27.7889 14.0734 27.7924C14.0773 27.7962 14.0797 27.7987 14.0836 27.8011C14.1245 27.8347 14.1654 27.8673 14.2083 27.8985C14.2506 27.9297 14.293 27.9594 14.3353 27.9895C14.3417 27.9944 14.349 27.9993 14.3563 28.0032C14.3986 28.0319 14.4425 28.0592 14.4863 28.0855C14.532 28.1137 14.5783 28.1415 14.627 28.1678C14.6294 28.1687 14.6319 28.1712 14.6358 28.1712C14.7813 28.251 14.9347 28.3211 15.093 28.3781C15.1465 28.3981 15.2006 28.417 15.2551 28.4331C15.3038 28.4492 15.3534 28.4628 15.4046 28.4769C15.4172 28.4803 15.4299 28.4828 15.4421 28.4852C15.4844 28.4964 15.5282 28.5066 15.5716 28.5154C15.5867 28.5193 15.6018 28.5227 15.6169 28.5242C15.6466 28.5315 15.6777 28.5363 15.7089 28.5417C15.7352 28.5466 15.7615 28.5505 15.7887 28.5539C15.8175 28.5587 15.8472 28.5626 15.8774 28.5651C15.9022 28.569 15.927 28.5714 15.9533 28.5738C16.003 28.5787 16.0531 28.5826 16.1043 28.585H16.1101C16.169 28.5889 16.2274 28.5899 16.2873 28.5899H42.2684L42.2747 33.4005H39.8519L44.8787 42.1043L49.9045 33.4005H47.4787L47.4724 28.5899H53.195C53.882 28.5899 54.4414 29.1498 54.4414 29.8364V57.507Z" fill="black"/>
<path d="M49.1478 49.5695H43.7807C41.9568 49.5695 40.4737 51.0526 40.4737 52.8766C40.4737 54.7 41.9568 56.1831 43.7807 56.1831H49.1478C50.9713 56.1831 52.4549 54.7 52.4549 52.8766C52.4549 51.0526 50.9713 49.5695 49.1478 49.5695ZM49.1478 54.9371H43.7807C42.6448 54.9371 41.7202 54.0135 41.7202 52.8766C41.7202 51.7411 42.6448 50.816 43.7807 50.816H49.1478C50.2848 50.816 51.2084 51.7411 51.2084 52.8766C51.2084 54.013 50.2848 54.9371 49.1478 54.9371Z" fill="black"/>
<path d="M28.327 32.2299L28.3255 31.7226H23.1215L23.1229 32.2163L23.1415 40.9265H20.7186L25.7454 49.6308L30.7712 40.9265H28.3455L28.327 32.2299ZM25.7454 47.1379L22.8785 42.173H24.3904L24.3704 32.9691H27.0815L27.1014 42.173H28.6123L25.7454 47.1379Z" fill="black"/>
<path d="M42.4495 12.0211L42.4481 12.0908C42.4466 12.8148 42.7558 13.5067 43.2992 13.9877C43.5787 14.2361 43.9063 14.4128 44.254 14.5126V15.203H45.5005V14.5311C46.7343 14.2346 47.5674 13.048 47.449 11.7232C47.3307 10.3954 46.4056 9.85978 45.053 9.46198C43.8129 9.09924 43.5548 8.68927 43.5397 8.14686C43.5222 7.52363 43.8903 6.99144 44.4546 6.82443C44.5344 6.80058 44.6167 6.78353 44.6976 6.77185C45.034 6.72949 45.3646 6.8332 45.6261 7.06399C45.9017 7.30695 46.0614 7.65704 46.0614 8.02465H47.3078C47.3078 7.29916 46.9948 6.60776 46.4504 6.12768C46.1724 5.88325 45.8471 5.70748 45.5005 5.60913V4.9187H44.254V5.5877C44.2014 5.60036 44.1503 5.614 44.0992 5.62909C43.0027 5.9558 42.2606 7.00507 42.2932 8.18192C42.3147 8.9483 42.5873 10.038 44.7015 10.6588C46.0365 11.0498 46.1675 11.3925 46.207 11.8342C46.2722 12.5596 45.8184 13.2038 45.1514 13.3333C45.1178 13.3397 45.0827 13.3445 45.0506 13.3499C44.7141 13.3908 44.3859 13.2861 44.1255 13.0553C43.8513 12.8114 43.6941 12.4608 43.6941 12.0932L43.6955 12.0236L42.4495 12.0211Z" fill="black"/>
<path d="M23.1999 5.16113H24.2667V11.1685H23.1999V5.16113Z" fill="black"/>
<path d="M23.1999 12.2354H24.2667V13.3022H23.1999V12.2354Z" fill="black"/>
<path d="M27.0186 7.29474H28.0854V13.3021H27.0186V7.29474Z" fill="black"/>
<path d="M27.0186 5.16113H28.0854V6.22842H27.0186V5.16113Z" fill="black"/>
</g>
<defs>
<clipPath id="clip0_58_14430">
<rect width="60" height="60" fill="white" transform="translate(0.5)"/>
</clipPath>
</defs>
</svg>
