<svg width="61" height="60" viewBox="0 0 61 60" fill="none" xmlns="http://www.w3.org/2000/svg">
<g clip-path="url(#clip0_58_14521)">
<path fill-rule="evenodd" clip-rule="evenodd" d="M1.67188 13.6194H59.3281V55.161H1.67188V13.6194Z" fill="#F8F8F8"/>
<path fill-rule="evenodd" clip-rule="evenodd" d="M1.67188 4.80469H59.3281V13.6198H1.67188V4.80469Z" fill="#FFC700"/>
<path fill-rule="evenodd" clip-rule="evenodd" d="M7.26392 37.7394H18.594V49.0695H7.26392V37.7394ZM41.4607 37.7394H52.7913V49.0695H41.4607V37.7394ZM24.3623 37.7394H35.6924V49.0695H24.3623V37.7394Z" fill="#FFC700"/>
<path fill-rule="evenodd" clip-rule="evenodd" d="M59.3281 3.63281H1.67188C1.0246 3.63281 0.5 4.15741 0.5 4.80469V55.1614C0.5 55.8083 1.0246 56.3333 1.67188 56.3333H25.8125C26.4598 56.3333 26.9844 55.8083 26.9844 55.1614C26.9844 54.5142 26.4598 53.9896 25.8125 53.9896H2.84375V14.7913H58.1562V53.9891H35.1875C34.5402 53.9891 34.0156 54.5137 34.0156 55.161C34.0156 55.8083 34.5402 56.3329 35.1875 56.3329H59.3281C59.9754 56.3329 60.5 55.8083 60.5 55.161V4.80469C60.5 4.15741 59.9754 3.63281 59.3281 3.63281ZM2.84375 12.4475V5.97656H58.1562V12.448H2.84375V12.4475Z" fill="#292929"/>
<path fill-rule="evenodd" clip-rule="evenodd" d="M49.4738 8.04016H47.6707C47.0234 8.04016 46.4988 8.56522 46.4988 9.21204C46.4988 9.85931 47.0234 10.3839 47.6707 10.3839H49.4738C50.1211 10.3839 50.6457 9.85931 50.6457 9.21204C50.6457 8.56522 50.1211 8.04016 49.4738 8.04016Z" fill="#292929"/>
<path fill-rule="evenodd" clip-rule="evenodd" d="M54.8663 8.04016H53.0632C52.4159 8.04016 51.8913 8.56522 51.8913 9.21204C51.8913 9.85931 52.4159 10.3839 53.0632 10.3839H54.8663C55.5136 10.3839 56.0382 9.85931 56.0382 9.21204C56.0382 8.56522 55.5136 8.04016 54.8663 8.04016Z" fill="#292929"/>
<path fill-rule="evenodd" clip-rule="evenodd" d="M44.0818 8.04016H42.2783C41.631 8.04016 41.1064 8.56522 41.1064 9.21204C41.1064 9.85931 41.631 10.3839 42.2783 10.3839H44.0818C44.7291 10.3839 45.2537 9.85931 45.2537 9.21204C45.2537 8.56522 44.7291 8.04016 44.0818 8.04016Z" fill="#292929"/>
<path fill-rule="evenodd" clip-rule="evenodd" d="M40.2888 37.7394V49.0695C40.2888 49.7168 40.8139 50.2414 41.4607 50.2414H52.7913C53.4385 50.2414 53.9631 49.7168 53.9631 49.0695V37.7394C53.9631 37.0921 53.4385 36.5675 52.7913 36.5675H41.4607C40.8139 36.5675 40.2888 37.0921 40.2888 37.7394ZM42.6326 38.9113H51.6194V47.8976H42.6326V38.9113Z" fill="#292929"/>
<path fill-rule="evenodd" clip-rule="evenodd" d="M6.09204 49.0695C6.09204 49.7168 6.61664 50.2414 7.26392 50.2414H18.594C19.2413 50.2414 19.7659 49.7168 19.7659 49.0695V37.7394C19.7659 37.0921 19.2413 36.5675 18.594 36.5675H7.26392C6.61664 36.5675 6.09204 37.0921 6.09204 37.7394V49.0695ZM8.43579 38.9113H17.4221V47.8976H8.43579V38.9113Z" fill="#292929"/>
<path fill-rule="evenodd" clip-rule="evenodd" d="M24.3623 50.2414H35.6924C36.3397 50.2414 36.8643 49.7168 36.8643 49.0695V37.7394C36.8643 37.0921 36.3397 36.5675 35.6924 36.5675H24.3623C23.715 36.5675 23.1904 37.0921 23.1904 37.7394V49.0695C23.1904 49.7168 23.715 50.2414 24.3623 50.2414ZM25.5342 38.9113H34.5205V47.8976H25.5342V38.9113Z" fill="#292929"/>
<path fill-rule="evenodd" clip-rule="evenodd" d="M23.6642 20.5344H25.4641C26.1114 20.5344 26.636 20.0098 26.636 19.3625C26.636 18.7152 26.1114 18.1906 25.4641 18.1906H23.6642C23.0169 18.1906 22.4923 18.7152 22.4923 19.3625C22.4923 20.0098 23.0169 20.5344 23.6642 20.5344Z" fill="#292929"/>
<path fill-rule="evenodd" clip-rule="evenodd" d="M21.1726 31.9308C21.1726 31.2836 20.648 30.759 20.0007 30.759H18.2013C17.554 30.759 17.0294 31.2836 17.0294 31.9308C17.0294 32.5781 17.554 33.1027 18.2013 33.1027H20.0007C20.648 33.1027 21.1726 32.5781 21.1726 31.9308Z" fill="#292929"/>
<path fill-rule="evenodd" clip-rule="evenodd" d="M23.6642 33.1027H25.4641C26.1114 33.1027 26.636 32.5781 26.636 31.9308C26.636 31.2836 26.1114 30.759 25.4641 30.759H23.6642C23.0169 30.759 22.4923 31.2836 22.4923 31.9308C22.4923 32.5781 23.0169 33.1027 23.6642 33.1027Z" fill="#292929"/>
<path fill-rule="evenodd" clip-rule="evenodd" d="M20.0007 18.1906H18.2013C17.554 18.1906 17.0294 18.7152 17.0294 19.3625C17.0294 20.0098 17.554 20.5344 18.2013 20.5344H20.0007C20.648 20.5344 21.1726 20.0098 21.1726 19.3625C21.1726 18.7152 20.648 18.1906 20.0007 18.1906Z" fill="#292929"/>
<path fill-rule="evenodd" clip-rule="evenodd" d="M29.1276 20.5344H30.9271C31.5744 20.5344 32.099 20.0098 32.099 19.3625C32.099 18.7152 31.5744 18.1906 30.9271 18.1906H29.1276C28.4803 18.1906 27.9557 18.7152 27.9557 19.3625C27.9557 20.0098 28.4803 20.5344 29.1276 20.5344Z" fill="#292929"/>
<path fill-rule="evenodd" clip-rule="evenodd" d="M29.1276 33.1027H30.9271C31.5744 33.1027 32.099 32.5781 32.099 31.9308C32.099 31.2836 31.5744 30.759 30.9271 30.759H29.1276C28.4803 30.759 27.9557 31.2836 27.9557 31.9308C27.9557 32.5781 28.4803 33.1027 29.1276 33.1027Z" fill="#292929"/>
<path fill-rule="evenodd" clip-rule="evenodd" d="M34.591 33.1027H36.3905C37.0378 33.1027 37.5624 32.5781 37.5624 31.9308C37.5624 31.2836 37.0378 30.759 36.3905 30.759H34.591C33.9438 30.759 33.4192 31.2836 33.4192 31.9308C33.4192 32.5781 33.9438 33.1027 34.591 33.1027Z" fill="#292929"/>
<path fill-rule="evenodd" clip-rule="evenodd" d="M34.591 20.5344H36.3905C37.0378 20.5344 37.5624 20.0098 37.5624 19.3625C37.5624 18.7152 37.0378 18.1906 36.3905 18.1906H34.591C33.9438 18.1906 33.4192 18.7152 33.4192 19.3625C33.4192 20.0098 33.9438 20.5344 34.591 20.5344Z" fill="#292929"/>
<path fill-rule="evenodd" clip-rule="evenodd" d="M12.7379 20.5344H14.5373C15.1846 20.5344 15.7092 20.0098 15.7092 19.3625C15.7092 18.7152 15.1846 18.1906 14.5373 18.1906H12.7379C12.0906 18.1906 11.566 18.7152 11.566 19.3625C11.566 20.0098 12.0906 20.5344 12.7379 20.5344Z" fill="#292929"/>
<path fill-rule="evenodd" clip-rule="evenodd" d="M40.054 20.5344H41.8539C42.5007 20.5344 43.0258 20.0098 43.0258 19.3625C43.0258 18.7152 42.5007 18.1906 41.8539 18.1906H40.054C39.4067 18.1906 38.8821 18.7152 38.8821 19.3625C38.8821 20.0098 39.4067 20.5344 40.054 20.5344Z" fill="#292929"/>
<path fill-rule="evenodd" clip-rule="evenodd" d="M6.09204 26.435C6.09204 27.0822 6.61664 27.6068 7.26392 27.6068C7.91119 27.6068 8.43579 27.0822 8.43579 26.435V24.8589C8.43579 24.2116 7.91119 23.687 7.26392 23.687C6.61664 23.687 6.09204 24.2116 6.09204 24.8589V26.435Z" fill="#292929"/>
<path fill-rule="evenodd" clip-rule="evenodd" d="M6.09204 31.9308C6.09204 32.5781 6.61664 33.1027 7.26392 33.1027H9.07437C9.72165 33.1027 10.2462 32.5781 10.2462 31.9308C10.2462 31.2835 9.72165 30.7589 9.07437 30.7589H8.43579V30.1204C8.43579 29.4735 7.91119 28.9485 7.26392 28.9485C6.61664 28.9485 6.09204 29.4735 6.09204 30.1204V31.9308Z" fill="#292929"/>
<path fill-rule="evenodd" clip-rule="evenodd" d="M7.26392 22.3453C7.91119 22.3453 8.43579 21.8202 8.43579 21.1734V20.5344H9.07437C9.72165 20.5344 10.2462 20.0098 10.2462 19.3625C10.2462 18.7152 9.72165 18.1906 9.07437 18.1906H7.26392C6.61664 18.1906 6.09204 18.7152 6.09204 19.3625V21.1734C6.09204 21.8202 6.61664 22.3453 7.26392 22.3453Z" fill="#292929"/>
<path fill-rule="evenodd" clip-rule="evenodd" d="M40.054 33.1027H41.8539C42.5007 33.1027 43.0258 32.5781 43.0258 31.9308C43.0258 31.2836 42.5007 30.759 41.8539 30.759H40.054C39.4067 30.759 38.8821 31.2836 38.8821 31.9308C38.8821 32.5781 39.4067 33.1027 40.054 33.1027Z" fill="#292929"/>
<path fill-rule="evenodd" clip-rule="evenodd" d="M45.5174 20.5344H47.3169C47.9641 20.5344 48.4887 20.0098 48.4887 19.3625C48.4887 18.7152 47.9641 18.1906 47.3169 18.1906H45.5174C44.8701 18.1906 44.3455 18.7152 44.3455 19.3625C44.3455 20.0098 44.8701 20.5344 45.5174 20.5344Z" fill="#292929"/>
<path fill-rule="evenodd" clip-rule="evenodd" d="M12.7379 33.1027H14.5373C15.1846 33.1027 15.7092 32.5781 15.7092 31.9308C15.7092 31.2836 15.1846 30.759 14.5373 30.759H12.7379C12.0906 30.759 11.566 31.2836 11.566 31.9308C11.566 32.5781 12.0906 33.1027 12.7379 33.1027Z" fill="#292929"/>
<path fill-rule="evenodd" clip-rule="evenodd" d="M45.5174 33.1027H47.3169C47.9641 33.1027 48.4887 32.5781 48.4887 31.9308C48.4887 31.2836 47.9641 30.759 47.3169 30.759H45.5174C44.8701 30.759 44.3455 31.2836 44.3455 31.9308C44.3455 32.5781 44.8701 33.1027 45.5174 33.1027Z" fill="#292929"/>
<path fill-rule="evenodd" clip-rule="evenodd" d="M53.9631 19.3625C53.9631 18.7152 53.4385 18.1906 52.7913 18.1906H50.9808C50.3335 18.1906 49.8089 18.7152 49.8089 19.3625C49.8089 20.0098 50.3335 20.5344 50.9808 20.5344H51.6194V21.1734C51.6194 21.8202 52.144 22.3453 52.7913 22.3453C53.4385 22.3453 53.9631 21.8202 53.9631 21.1734V19.3625Z" fill="#292929"/>
<path fill-rule="evenodd" clip-rule="evenodd" d="M52.7913 23.687C52.144 23.687 51.6194 24.2116 51.6194 24.8589V26.435C51.6194 27.0822 52.144 27.6068 52.7913 27.6068C53.4385 27.6068 53.9631 27.0822 53.9631 26.435V24.8589C53.9631 24.2116 53.4385 23.687 52.7913 23.687Z" fill="#292929"/>
<path fill-rule="evenodd" clip-rule="evenodd" d="M50.9808 33.1027H52.7913C53.4385 33.1027 53.9631 32.5781 53.9631 31.9308V30.1204C53.9631 29.4735 53.4385 28.9485 52.7913 28.9485C52.144 28.9485 51.6194 29.4735 51.6194 30.1204V30.7589H50.9808C50.3335 30.7589 49.8089 31.2835 49.8089 31.9308C49.8089 32.5781 50.3335 33.1027 50.9808 33.1027Z" fill="#292929"/>
<path fill-rule="evenodd" clip-rule="evenodd" d="M30.5 53.9891C29.8546 53.9891 29.3281 54.5156 29.3281 55.161C29.3281 55.8065 29.8546 56.3329 30.5 56.3329C31.1454 56.3329 31.6719 55.8065 31.6719 55.161C31.6719 54.5156 31.1454 53.9891 30.5 53.9891Z" fill="#292929"/>
</g>
<defs>
<clipPath id="clip0_58_14521">
<rect width="60" height="60" fill="white" transform="translate(0.5)"/>
</clipPath>
</defs>
</svg>
