<svg width="188" height="36" viewBox="0 0 188 36" fill="none" xmlns="http://www.w3.org/2000/svg">
<path d="M0 27.6356V1.65814H6.92733L14.8127 19.3081H13.5599L21.4452 1.65814H28.3726V27.6356H21.1873V13.5967H22.956L16.3234 27.6356H11.9386L5.30604 13.5967H7.18526V27.6356H0Z" fill="#292929"/>
<path d="M32.669 36L30.8635 30.1044C32.0426 29.9079 33.0375 29.6991 33.8482 29.478C34.6588 29.2569 35.3221 28.9376 35.8379 28.52C36.3538 28.1269 36.7468 27.5988 37.017 26.9355L37.9382 24.8352L37.754 27.6356L29.5739 8.8434H37.6066L41.8441 20.0819H40.5176L44.9761 8.8434H52.493L44.1286 27.7093C43.4162 29.306 42.6547 30.608 41.8441 31.6151C41.058 32.6223 40.1982 33.4084 39.2647 33.9734C38.3313 34.563 37.3241 34.9928 36.2433 35.263C35.1624 35.5578 33.971 35.8035 32.669 36Z" fill="#292929"/>
<path d="M67.2101 28.0778C64.3114 28.0778 61.7935 27.5251 59.6564 26.4197C57.5438 25.2897 55.8979 23.7175 54.7188 21.7032C53.5643 19.6888 52.987 17.3306 52.987 14.6285C52.987 11.9263 53.5643 9.58035 54.7188 7.59058C55.8979 5.57625 57.5438 4.01638 59.6564 2.91095C61.7935 1.78096 64.3114 1.21597 67.2101 1.21597C68.9788 1.21597 70.6001 1.44934 72.074 1.91607C73.5724 2.35824 74.813 2.99693 75.7956 3.83214L73.4742 10.0594C72.3688 9.32242 71.3739 8.81883 70.4895 8.54862C69.6052 8.25384 68.6103 8.10645 67.5049 8.10645C65.5151 8.10645 63.9798 8.67144 62.899 9.80143C61.8427 10.9069 61.3145 12.5159 61.3145 14.6285C61.3145 16.7656 61.8427 18.3992 62.899 19.5292C63.9798 20.6346 65.5151 21.1873 67.5049 21.1873C68.6103 21.1873 69.6052 21.0522 70.4895 20.782C71.3739 20.4872 72.3688 19.9713 73.4742 19.2344L75.7956 25.4616C74.813 26.2968 73.5724 26.9478 72.074 27.4145C70.6001 27.8567 68.9788 28.0778 67.2101 28.0778Z" fill="#292929"/>
<path d="M78.4696 27.6356V0.515864H86.1339V27.6356H78.4696Z" fill="#292929"/>
<path d="M89.6246 27.6356V8.8434H97.2889V27.6356H89.6246ZM89.5141 6.70624V0H97.3994V6.70624H89.5141Z" fill="#292929"/>
<path d="M111.17 28.0778C107.632 28.0778 104.893 27.1934 102.953 25.4248C101.012 23.6561 100.042 21.2487 100.042 18.2027C100.042 16.3112 100.435 14.6285 101.221 13.1546C102.032 11.6807 103.162 10.5261 104.611 9.69089C106.085 8.83112 107.804 8.40123 109.77 8.40123C111.735 8.40123 113.368 8.83112 114.67 9.69089C115.972 10.5507 116.943 11.7298 117.581 13.2282C118.22 14.7021 118.539 16.3971 118.539 18.3132V19.7871H106.527V16.3234H112.828L112.201 16.8393C112.201 15.6356 111.993 14.7636 111.575 14.2231C111.157 13.6581 110.58 13.3756 109.843 13.3756C108.983 13.3756 108.332 13.7196 107.89 14.4074C107.473 15.0706 107.264 16.1515 107.264 17.65V18.4237C107.264 19.8485 107.608 20.8802 108.296 21.5189C109.008 22.1331 110.052 22.4401 111.428 22.4401C112.361 22.4401 113.245 22.3541 114.081 22.1822C114.916 21.9857 115.714 21.6786 116.476 21.261L118.392 26.2354C117.409 26.825 116.304 27.2794 115.076 27.5988C113.872 27.9181 112.57 28.0778 111.17 28.0778Z" fill="#292929"/>
<path d="M121.254 27.6356V14.1863C121.254 13.3019 121.23 12.4176 121.181 11.5333C121.132 10.6244 121.058 9.72774 120.96 8.8434H128.329L128.734 11.828H128.329C128.968 10.7472 129.84 9.91198 130.945 9.32242C132.051 8.70829 133.291 8.40123 134.667 8.40123C136.878 8.40123 138.524 9.07677 139.604 10.4278C140.685 11.7544 141.226 13.8178 141.226 16.6182V27.6356H133.562V16.913C133.562 15.9058 133.39 15.2057 133.046 14.8127C132.726 14.4197 132.284 14.2231 131.719 14.2231C130.884 14.2231 130.208 14.5056 129.693 15.0706C129.177 15.6111 128.919 16.3357 128.919 17.2446V27.6356H121.254Z" fill="#292929"/>
<path d="M155.146 28.0778C152.222 28.0778 150.036 27.4145 148.587 26.088C147.137 24.7369 146.413 22.6981 146.413 19.9713V14.4442H142.949V8.8434H146.413V4.60594L154.077 2.83726V8.8434H158.425V14.4442H154.077V19.7503C154.077 20.7083 154.31 21.3224 154.777 21.5926C155.268 21.8628 155.809 21.998 156.398 21.998C156.816 21.998 157.16 21.9734 157.43 21.9243C157.725 21.8751 158.056 21.7892 158.425 21.6663V27.4882C157.835 27.7339 157.258 27.8936 156.693 27.9672C156.153 28.0409 155.637 28.0778 155.146 28.0778Z" fill="#292929"/>
<path d="M168.101 28.0778C166.283 28.0778 164.637 27.9058 163.163 27.5619C161.714 27.218 160.473 26.7513 159.442 26.1617L161.21 21.2242C162.168 21.7155 163.262 22.1331 164.49 22.477C165.743 22.8209 166.959 22.9928 168.138 22.9928C168.924 22.9928 169.476 22.8946 169.796 22.6981C170.115 22.477 170.275 22.2068 170.275 21.8874C170.275 21.6172 170.164 21.4084 169.943 21.261C169.747 21.1136 169.464 21.0154 169.096 20.9662L164.969 20.2661C163.372 19.9959 162.132 19.4186 161.247 18.5343C160.363 17.6254 159.921 16.4463 159.921 14.9969C159.921 13.6704 160.277 12.5159 160.989 11.5333C161.726 10.5507 162.758 9.78915 164.084 9.24872C165.436 8.68373 167.02 8.40123 168.838 8.40123C170.287 8.40123 171.675 8.5609 173.002 8.88025C174.353 9.17503 175.532 9.65404 176.539 10.3173L174.66 15.1075C173.898 14.6407 172.989 14.26 171.933 13.9652C170.901 13.6459 169.955 13.4862 169.096 13.4862C168.187 13.4862 167.548 13.5967 167.18 13.8178C166.836 14.0143 166.664 14.2723 166.664 14.5916C166.664 14.8127 166.75 15.0092 166.922 15.1812C167.118 15.3286 167.413 15.4391 167.806 15.5128L171.933 16.176C173.554 16.4217 174.807 16.9867 175.691 17.871C176.576 18.7308 177.018 19.9099 177.018 21.4084C177.018 22.8332 176.637 24.0368 175.876 25.0194C175.139 26.002 174.095 26.7636 172.744 27.304C171.417 27.8199 169.87 28.0778 168.101 28.0778Z" fill="#292929"/>
<path d="M180.548 18.2395L178.152 1.65814H187.549L185.153 18.2395H180.548ZM178.963 27.6356V20.0082H186.738V27.6356H178.963Z" fill="#292929"/>
</svg>
