<svg width="24" height="24" viewBox="0 0 24 24" fill="none" xmlns="http://www.w3.org/2000/svg">
<g clip-path="url(#clip0_120_101)">
<path fill-rule="evenodd" clip-rule="evenodd" d="M8.68617 8.85793C9.24226 8.00703 10.3176 8.00319 11.0808 8.56569L13.6897 10.4878C13.9591 10.6716 14.2332 10.6668 14.4624 10.4878L17.799 7.96199C18.3582 7.46394 19.2135 8.07075 18.666 8.86672L15.3434 13.9528C14.7873 14.8037 13.7117 14.8074 12.9485 14.2451L10.3398 12.3228C10.0703 12.1392 9.79634 12.1439 9.56691 12.3228L6.23054 14.8488C5.67133 15.3466 4.81586 14.7398 5.36335 13.9441L8.68617 8.85793ZM8.54262 21.8282C9.63393 22.1917 10.8012 22.3889 12.0147 22.3889C18.0808 22.3889 22.9983 17.4714 22.9983 11.4053C22.9983 5.33936 18.0808 0.421875 12.0147 0.421875C5.94874 0.421875 1.03125 5.33936 1.03125 11.4053C1.03125 14.6732 2.45874 17.6069 4.72358 19.6189V22.7207C4.71571 23.2951 5.3412 23.6758 5.85096 23.3822L8.54262 21.8282Z" fill="white"/>
<path fill-rule="evenodd" clip-rule="evenodd" d="M11.0808 8.56574C10.3176 8.00342 9.24225 8.00708 8.68616 8.85797L5.36334 13.9441C4.81585 14.7401 5.67132 15.3469 6.23053 14.8488L9.5669 12.3231C9.79633 12.144 10.0703 12.1392 10.3398 12.3231L12.9485 14.2451C13.7119 14.8076 14.7872 14.8038 15.3433 13.9531L18.666 8.86676C19.2136 8.07098 18.3582 7.46399 17.799 7.96204L14.4626 10.488C14.2332 10.6671 13.9591 10.6718 13.6897 10.488L11.0808 8.56574Z" fill="#FFC700"/>
<path d="M18.0714 20.0012C16.2933 21.2566 14.1989 21.9202 12.0147 21.9202C10.8781 21.9202 9.75972 21.7396 8.69075 21.3835C8.56349 21.3412 8.42433 21.3553 8.30824 21.4223L5.61714 22.9759C5.49372 23.0472 5.38679 23.0058 5.33405 22.9748C5.29066 22.9494 5.19032 22.8743 5.19233 22.7273C5.19233 22.7251 5.19233 22.7229 5.19233 22.7207V19.6189C5.19233 19.485 5.13502 19.3574 5.03486 19.2686C2.78833 17.2729 1.5 14.407 1.5 11.4055C1.5 9.22122 2.16358 7.12685 3.41895 5.34871C3.56818 5.13722 3.51783 4.8448 3.30634 4.69557C3.09485 4.54616 2.80243 4.59651 2.65302 4.808C1.2854 6.74508 0.5625 9.02639 0.5625 11.4053C0.5625 14.6036 1.90558 17.6607 4.25483 19.8269V22.7178C4.25007 23.1532 4.48133 23.5611 4.85908 23.7831C5.05207 23.8964 5.26411 23.9532 5.47633 23.9532C5.68525 23.9532 5.89436 23.8982 6.08534 23.7882L8.59663 22.3382C9.69985 22.683 10.8487 22.8577 12.0147 22.8577C14.3936 22.8577 16.6749 22.1348 18.612 20.7671C18.8235 20.6177 18.874 20.3253 18.7246 20.1138C18.5754 19.9023 18.2829 19.852 18.0714 20.0012Z" fill="#292929"/>
<path d="M20.1127 3.30744C17.9497 1.14441 15.0738 -0.046875 12.0147 -0.046875C9.63593 -0.046875 7.35462 0.676027 5.41717 2.04383C5.20569 2.19324 5.15533 2.48566 5.30456 2.69715C5.45379 2.90864 5.7464 2.95899 5.95788 2.80976C7.73621 1.5542 9.83057 0.890627 12.0147 0.890627C17.8125 0.890627 22.5295 5.60743 22.5295 11.4053C22.5295 13.5896 21.8659 15.6839 20.6104 17.4623C20.4611 17.6737 20.5115 17.9662 20.723 18.1156C20.8052 18.1734 20.8995 18.2015 20.9929 18.2015C21.1401 18.2015 21.2849 18.1322 21.3763 18.003C22.7439 16.0655 23.467 13.7842 23.467 11.4055C23.467 8.34633 22.2757 5.47047 20.1127 3.30744Z" fill="#292929"/>
<path d="M18.9588 7.57871C18.5463 7.2147 17.9373 7.22404 17.503 7.59812L14.1796 10.1142C14.1778 10.1155 14.1759 10.1169 14.1741 10.1184C14.1323 10.151 14.0851 10.1878 13.96 10.1047L11.359 8.18827C10.8256 7.79514 10.1765 7.63163 9.57832 7.73948C9.04347 7.83597 8.59926 8.13407 8.29384 8.60136L4.97394 13.6833C4.5431 14.3141 4.71174 14.9152 5.07081 15.2322C5.27296 15.4105 5.52235 15.4991 5.7754 15.4991C6.03834 15.4991 6.30531 15.4032 6.52668 15.2126L9.84987 12.6967C9.8517 12.6952 9.85353 12.6938 9.85555 12.6923C9.89729 12.6597 9.94453 12.6227 10.0696 12.706L12.6706 14.6224C13.204 15.0156 13.8531 15.1791 14.4513 15.0712C14.9862 14.9747 15.4302 14.6766 15.7358 14.2093L19.0557 9.12742C19.4864 8.49662 19.3179 7.89548 18.9588 7.57871ZM18.2799 8.60099C18.2779 8.6041 18.2757 8.60722 18.2737 8.61033L14.951 13.6965C14.7879 13.9462 14.5637 14.0982 14.2849 14.1485C13.9443 14.2099 13.5486 14.105 13.2267 13.8677L10.6178 11.9456C10.6132 11.9421 10.6087 11.9388 10.6041 11.9357C10.1698 11.6394 9.67574 11.6453 9.28151 11.9511L5.9477 14.4752C5.93781 14.4827 5.92811 14.4906 5.91895 14.4988C5.82246 14.5845 5.73603 14.5688 5.69099 14.529C5.61719 14.4639 5.67286 14.3214 5.74976 14.2097C5.75178 14.2066 5.75397 14.2035 5.75599 14.2004L9.07863 9.11424C9.24196 8.86448 9.46608 8.7125 9.74477 8.66215C10.0853 8.60062 10.481 8.70573 10.8029 8.94303L13.4118 10.8651C13.4164 10.8686 13.421 10.8719 13.4257 10.875C13.8599 11.1712 14.3543 11.1654 14.7483 10.8594L18.0819 8.33567C18.0918 8.32816 18.1015 8.32029 18.1109 8.31187C18.2072 8.22617 18.2938 8.24192 18.3387 8.28165C18.4124 8.34684 18.3568 8.4893 18.2799 8.60099Z" fill="#292929"/>
<path d="M4.24807 4.10761C4.36801 4.10761 4.48812 4.06165 4.57968 3.97009C4.7626 3.78717 4.7626 3.49036 4.57968 3.30725C4.39657 3.12415 4.09975 3.12415 3.91665 3.30725L3.91647 3.30743C3.73354 3.49054 3.73354 3.78717 3.91665 3.97028C4.00802 4.06183 4.12795 4.10761 4.24807 4.10761Z" fill="#292929"/>
<path d="M19.4343 18.8564L19.4341 18.8568C19.2599 19.0483 19.2742 19.3446 19.4658 19.5187C19.5555 19.6004 19.6683 19.6406 19.7809 19.6406C19.9083 19.6406 20.0354 19.5888 20.1279 19.487C20.302 19.2955 20.2879 18.999 20.0964 18.8249C19.9048 18.6508 19.6084 18.6649 19.4343 18.8564Z" fill="#292929"/>
</g>
<defs>
<clipPath id="clip0_120_101">
<rect width="24" height="24" fill="white"/>
</clipPath>
</defs>
</svg>
