<svg width="25" height="25" viewBox="0 0 25 25" fill="none" xmlns="http://www.w3.org/2000/svg">
<g clip-path="url(#clip0_120_229)">
<path fill-rule="evenodd" clip-rule="evenodd" d="M9.0481 9.22701C9.62736 8.34066 10.7475 8.33665 11.5425 8.92259L14.2601 10.9247C14.5407 11.1162 14.8262 11.1113 15.065 10.9247L18.5406 8.29374C19.1231 7.77494 20.014 8.40704 19.4437 9.23616L15.9827 14.5342C15.4034 15.4206 14.283 15.4244 13.488 14.8386L10.7706 12.8363C10.4899 12.645 10.2045 12.6499 9.96553 12.8363L6.49015 15.4675C5.90764 15.9861 5.01653 15.354 5.58682 14.5251L9.0481 9.22701ZM8.89856 22.7377C10.0353 23.1163 11.2513 23.3218 12.5153 23.3218C18.8341 23.3218 23.9565 18.1994 23.9565 11.8805C23.9565 5.56184 18.8341 0.439453 12.5153 0.439453C6.1966 0.439453 1.07422 5.56184 1.07422 11.8805C1.07422 15.2846 2.56119 18.3405 4.92039 20.4363V23.6674C4.91219 24.2657 5.56375 24.6623 6.09475 24.3565L8.89856 22.7377Z" fill="#039DFD"/>
<path fill-rule="evenodd" clip-rule="evenodd" d="M11.5422 8.92251C10.7472 8.33677 9.62702 8.34058 9.04776 9.22693L5.58648 14.525C5.01619 15.3541 5.9073 15.9862 6.48981 15.4674L9.96519 12.8364C10.2042 12.6499 10.4895 12.6449 10.7703 12.8364L13.4877 14.8385C14.2829 15.4245 15.4031 15.4205 15.9823 14.5343L19.4434 9.23608C20.0139 8.40715 19.1228 7.77486 18.5403 8.29366L15.0649 10.9249C14.8259 11.1114 14.5404 11.1164 14.2598 10.9249L11.5422 8.92251Z" fill="white"/>
<path d="M18.8244 20.8347C16.9722 22.1423 14.7906 22.8336 12.5153 22.8336C11.3314 22.8336 10.1664 22.6455 9.05287 22.2745C8.9203 22.2305 8.77535 22.2451 8.65442 22.315L5.85118 23.9333C5.72263 24.0075 5.61124 23.9644 5.55631 23.9322C5.5111 23.9057 5.40658 23.8275 5.40868 23.6743C5.40868 23.672 5.40868 23.6698 5.40868 23.6675V20.4364C5.40868 20.297 5.34898 20.164 5.24465 20.0715C2.90452 17.9927 1.5625 15.0073 1.5625 11.8808C1.5625 9.6055 2.25373 7.42388 3.56141 5.57165C3.71686 5.35135 3.6644 5.04674 3.44411 4.89129C3.22381 4.73565 2.9192 4.7881 2.76356 5.0084C1.33896 7.02619 0.585938 9.40256 0.585938 11.8806C0.585938 15.2122 1.98498 18.3967 4.43211 20.6531V23.6644C4.42715 24.118 4.66805 24.5429 5.06154 24.7741C5.26258 24.8922 5.48345 24.9513 5.70451 24.9513C5.92214 24.9513 6.13996 24.8941 6.33889 24.7794L8.95483 23.269C10.104 23.6282 11.3007 23.8101 12.5153 23.8101C14.9933 23.8101 17.3697 23.0571 19.3875 21.6325C19.6078 21.4769 19.6604 21.1723 19.5048 20.952C19.3493 20.7317 19.0447 20.6792 18.8244 20.8347Z" fill="black"/>
<path d="M20.9511 3.44525C18.6979 1.1921 15.7022 -0.0488281 12.5156 -0.0488281C10.0378 -0.0488281 7.66138 0.704195 5.64321 2.12899C5.42291 2.28463 5.37046 2.58923 5.52591 2.80953C5.68136 3.02983 5.98616 3.08228 6.20645 2.92683C8.05888 1.61896 10.2405 0.927736 12.5156 0.927736C18.555 0.927736 23.4686 5.84108 23.4686 11.8805C23.4686 14.1558 22.7773 16.3374 21.4695 18.1898C21.314 18.4101 21.3665 18.7148 21.5868 18.8704C21.6724 18.9307 21.7706 18.9598 21.8679 18.9598C22.0213 18.9598 22.1721 18.8877 22.2673 18.7531C23.6919 16.7349 24.4451 14.3585 24.4451 11.8807C24.4451 8.69409 23.2042 5.69841 20.9511 3.44525Z" fill="black"/>
<path d="M19.7482 7.89453C19.3185 7.51535 18.6841 7.52508 18.2317 7.91475L14.7699 10.5356C14.768 10.537 14.7661 10.5385 14.7641 10.54C14.7207 10.574 14.6714 10.6123 14.5412 10.5257L11.8318 8.52949C11.2762 8.11998 10.6 7.94965 9.97688 8.062C9.41974 8.16251 8.95702 8.47303 8.63887 8.95979L5.18065 14.2535C4.73185 14.9105 4.90752 15.5367 5.28155 15.8669C5.49212 16.0527 5.7519 16.145 6.0155 16.145C6.2894 16.145 6.56749 16.045 6.79809 15.8465L10.2597 13.2258C10.2616 13.2242 10.2636 13.2227 10.2657 13.2212C10.3091 13.1872 10.3584 13.1487 10.4886 13.2355L13.198 15.2317C13.7536 15.6412 14.4298 15.8116 15.0529 15.6992C15.6101 15.5987 16.0726 15.2882 16.3909 14.8014L19.8491 9.50777C20.2978 8.85069 20.1223 8.2245 19.7482 7.89453ZM19.041 8.95941C19.0389 8.96265 19.0366 8.96589 19.0345 8.96913L15.5734 14.2672C15.4035 14.5273 15.17 14.6857 14.8795 14.7381C14.5248 14.802 14.1126 14.6927 13.7773 14.4455L11.0597 12.4434C11.0549 12.4398 11.0501 12.4363 11.0454 12.4331C10.593 12.1245 10.0784 12.1306 9.6677 12.4491L6.19498 15.0784C6.18468 15.0862 6.17457 15.0944 6.16504 15.103C6.06452 15.1923 5.97449 15.1758 5.92757 15.1345C5.85071 15.0666 5.90869 14.9182 5.9888 14.8018C5.9909 14.7986 5.99318 14.7953 5.99528 14.7921L9.45636 9.49404C9.6265 9.23387 9.85996 9.07556 10.1503 9.02311C10.505 8.95902 10.9172 9.06851 11.2525 9.3157L13.9701 11.3178C13.9749 11.3215 13.9797 11.3249 13.9846 11.3281C14.4368 11.6368 14.9518 11.6307 15.3623 11.3119L18.8348 8.68303C18.8451 8.67521 18.8552 8.66701 18.865 8.65824C18.9653 8.56897 19.0555 8.58537 19.1022 8.62676C19.1791 8.69467 19.1211 8.84306 19.041 8.95941Z" fill="black"/>
<path d="M4.42483 4.27876C4.54976 4.27876 4.67488 4.23088 4.77025 4.13551C4.9608 3.94497 4.9608 3.63579 4.77025 3.44505C4.57952 3.25432 4.27033 3.25432 4.0796 3.44505L4.07941 3.44524C3.88886 3.63598 3.88886 3.94497 4.0796 4.13571C4.17478 4.23107 4.29971 4.27876 4.42483 4.27876Z" fill="black"/>
<path d="M20.2443 19.6422L20.2441 19.6426C20.0627 19.8421 20.0776 20.1507 20.2771 20.3321C20.3705 20.4172 20.488 20.4591 20.6053 20.4591C20.7381 20.4591 20.8705 20.4052 20.9668 20.2991C21.1482 20.0996 21.1335 19.7908 20.934 19.6094C20.7345 19.428 20.4257 19.4427 20.2443 19.6422Z" fill="black"/>
</g>
<defs>
<clipPath id="clip0_120_229">
<rect width="25" height="25" fill="white"/>
</clipPath>
</defs>
</svg>
