<svg width="16" height="16" viewBox="0 0 16 16" fill="none" xmlns="http://www.w3.org/2000/svg">
<g clip-path="url(#clip0_113_22845)">
<path d="M0.781396 15.9999C0.626858 15.9999 0.475783 15.9541 0.347281 15.8683C0.218778 15.7825 0.118621 15.6604 0.0594776 15.5177C0.000334661 15.3749 -0.0151369 15.2178 0.0150198 15.0662C0.0451766 14.9146 0.119607 14.7754 0.228896 14.6662L14.6664 0.22867C14.8129 0.0821378 15.0117 -0.000183105 15.2189 -0.000183105C15.4261 -0.000183105 15.6249 0.0821378 15.7714 0.22867C15.9179 0.375202 16.0002 0.573942 16.0002 0.78117C16.0002 0.988398 15.9179 1.18714 15.7714 1.33367L1.3339 15.7712C1.26141 15.8438 1.17528 15.9014 1.08047 15.9407C0.985653 15.9799 0.884016 16.0001 0.781396 15.9999Z" fill="#292929"/>
<path d="M15.2189 15.9999C15.1162 16.0001 15.0146 15.9799 14.9198 15.9407C14.825 15.9014 14.7388 15.8438 14.6664 15.7712L0.228853 1.33367C0.0823209 1.18714 0 0.988398 0 0.78117C0 0.573942 0.0823209 0.375202 0.228853 0.22867C0.375385 0.0821378 0.574125 -0.000183105 0.781353 -0.000183105C0.988581 -0.000183105 1.18732 0.0821378 1.33385 0.22867L15.7714 14.6662C15.8806 14.7754 15.9551 14.9146 15.9852 15.0662C16.0154 15.2178 15.9999 15.3749 15.9408 15.5177C15.8816 15.6604 15.7815 15.7825 15.653 15.8683C15.5245 15.9541 15.3734 15.9999 15.2189 15.9999Z" fill="#292929"/>
</g>
<defs>
<clipPath id="clip0_113_22845">
<rect width="16" height="16" fill="white"/>
</clipPath>
</defs>
</svg>
