<svg width="16" height="17" viewBox="0 0 16 17" fill="none" xmlns="http://www.w3.org/2000/svg">
<g clip-path="url(#clip0_73_1739)">
<path d="M14.6666 0.500122H9.12485C8.75825 0.500122 8.24587 0.712503 7.98685 0.97133L0.389089 8.56905C-0.129696 9.08725 -0.129696 9.93685 0.389089 10.4544L6.04624 16.1114C6.56385 16.6296 7.41263 16.6296 7.93103 16.1108L15.5288 8.51424C15.7876 8.25546 16 7.74226 16 7.37644V1.83351C16 1.10031 15.3998 0.500122 14.6666 0.500122ZM11.9998 5.83348C11.2634 5.83348 10.6664 5.23587 10.6664 4.50009C10.6664 3.76311 11.2634 3.1667 11.9998 3.1667C12.7362 3.1667 13.3334 3.76311 13.3334 4.50009C13.3334 5.23587 12.7362 5.83348 11.9998 5.83348Z" fill="#E0E0E0"/>
</g>
<defs>
<clipPath id="clip0_73_1739">
<rect width="16" height="16" fill="white" transform="translate(0 0.5)"/>
</clipPath>
</defs>
</svg>
