<svg width="24" height="24" viewBox="0 0 24 24" fill="none" xmlns="http://www.w3.org/2000/svg">
<g clip-path="url(#clip0_120_119)">
<mask id="mask0_120_119" style="mask-type:luminance" maskUnits="userSpaceOnUse" x="0" y="0" width="24" height="24">
<path d="M0 0H24V24H0V0Z" fill="white"/>
</mask>
<g mask="url(#mask0_120_119)">
<path d="M23.5315 2.34399V21.6565C23.5315 22.692 22.692 23.5315 21.6565 23.5315H2.34399C1.30853 23.5315 0.468994 22.692 0.468994 21.6565V2.34399C0.468994 1.30852 1.30853 0.468992 2.34399 0.468992H21.6565C22.692 0.468992 23.5315 1.30852 23.5315 2.34399Z" fill="white"/>
<path d="M18.7969 7.07809L7.85484 13.59L4.96875 12.4687L18.7969 7.07809Z" fill="#FFC700"/>
<path d="M10.5938 14.5603L9.65625 18.0937L12.0403 15.7097L16.2188 19.0312L18.7969 7.07812L10.5938 14.5603Z" fill="#FFC700"/>
<path d="M17.625 2.01562C17.8838 2.01562 18.0938 2.22562 18.0938 2.48437C18.0938 2.74312 17.8838 2.95312 17.625 2.95312C17.3663 2.95312 17.1562 2.74312 17.1562 2.48437C17.1562 2.22562 17.3663 2.01562 17.625 2.01562Z" fill="#FFC700"/>
<path fill-rule="evenodd" clip-rule="evenodd" d="M16.3766 19.4726C16.5292 19.4181 16.6428 19.2885 16.677 19.1301L19.2551 7.17695C19.2915 7.00828 19.2322 6.83326 19.1009 6.72134C18.9696 6.60943 18.7874 6.57871 18.6266 6.64138L4.7985 12.032C4.61842 12.1022 4.49989 12.2757 4.5 12.469C4.50011 12.6623 4.61884 12.8357 4.799 12.9057L7.68509 14.0269C7.92641 14.1207 8.19803 14.0011 8.29178 13.7597C8.38553 13.5184 8.26591 13.2468 8.02459 13.1531L6.26125 12.468L18.1549 7.83151L15.9197 18.1947L12.332 15.3427L12.3319 15.3427L10.8854 14.1933C10.6827 14.0323 10.3878 14.066 10.2267 14.2687C10.0657 14.4714 10.0995 14.7663 10.3021 14.9273L11.7486 16.0766L11.7487 16.0767L15.9271 19.3982C16.0539 19.499 16.2239 19.5272 16.3766 19.4726Z" fill="#292929"/>
<path fill-rule="evenodd" clip-rule="evenodd" d="M9.53591 18.5468C9.78614 18.6132 10.0428 18.4642 10.1092 18.214L11.0113 14.8138L19.1126 7.42446C19.3039 7.25 19.3175 6.95351 19.1431 6.76224C18.9686 6.57097 18.6721 6.55735 18.4809 6.73181L10.2777 14.214C10.2112 14.2746 10.1636 14.3531 10.1405 14.4401L9.20305 17.9735C9.13666 18.2238 9.28569 18.4804 9.53591 18.5468Z" fill="#292929"/>
<path fill-rule="evenodd" clip-rule="evenodd" d="M9.56195 18.5529C9.7163 18.5846 9.87624 18.5366 9.98766 18.4252L12.3717 16.0411C12.5548 15.8581 12.5548 15.5613 12.3717 15.3782C12.1887 15.1952 11.8919 15.1952 11.7088 15.3782L9.82742 17.2596L8.43882 13.7879L19.0366 7.48093C19.259 7.34853 19.332 7.06086 19.1996 6.83839C19.0672 6.61592 18.7796 6.54291 18.5571 6.6753L7.61507 13.1872C7.41682 13.3052 7.33389 13.5499 7.41957 13.7641L9.22098 18.2678C9.27949 18.4141 9.4076 18.5212 9.56195 18.5529Z" fill="#292929"/>
<path fill-rule="evenodd" clip-rule="evenodd" d="M0 21.6562C0 22.9506 1.0494 24 2.34375 24H21.6563C22.9506 24 24 22.9506 24 21.6562V2.34375C24 1.0494 22.9506 -1.90735e-06 21.6563 -1.90735e-06H2.34375C1.0494 -1.90735e-06 0 1.0494 0 2.34375V21.6562ZM2.34375 23.0625C1.56716 23.0625 0.9375 22.4328 0.9375 21.6562V2.34375C0.9375 1.56716 1.56716 0.937498 2.34375 0.937498H21.6563C22.4328 0.937498 23.0625 1.56716 23.0625 2.34375V21.6562C23.0625 22.4328 22.4328 23.0625 21.6563 23.0625H2.34375Z" fill="#292929"/>
<path fill-rule="evenodd" clip-rule="evenodd" d="M5.90625 2.48438C5.90625 2.74326 6.11612 2.95312 6.375 2.95312H15.75C16.0089 2.95312 16.2188 2.74326 16.2188 2.48438C16.2188 2.22549 16.0089 2.01562 15.75 2.01562H6.375C6.11612 2.01562 5.90625 2.22549 5.90625 2.48438Z" fill="#FFC700"/>
</g>
</g>
<defs>
<clipPath id="clip0_120_119">
<rect width="24" height="24" fill="white"/>
</clipPath>
</defs>
</svg>
