<svg width="24" height="24" viewBox="0 0 24 24" fill="none" xmlns="http://www.w3.org/2000/svg">
<path fill-rule="evenodd" clip-rule="evenodd" d="M11.1675 12.8973L20.0746 3.99023L4.08789 8.38832L9.26757 11.6872C9.28425 11.6949 9.29928 11.7046 9.3126 11.716L11.1675 12.8973ZM10.4038 10.3459C10.5038 10.4031 10.5324 10.5317 10.4609 10.6317C10.418 10.6889 10.3608 10.7175 10.2894 10.7175C10.2465 10.7175 10.218 10.7032 10.1751 10.6889L7.63164 9.07423C7.53158 9.01705 7.50303 8.88844 7.57446 8.78841C7.63164 8.68839 7.76021 8.6598 7.86027 8.73128L10.4038 10.3459Z" fill="#4D95CF"/>
<path fill-rule="evenodd" clip-rule="evenodd" d="M20.334 4.30078L11.3318 13.2895C11.289 13.3323 11.2318 13.3609 11.189 13.3609C11.1416 13.3609 11.1039 13.3511 11.0681 13.3233L9.30142 12.1963L8.2168 16.133L12.298 14.9909C12.3081 14.9797 12.3195 14.9697 12.3321 14.9613C12.4321 14.9042 12.5607 14.9327 12.6179 15.0185L12.627 15.0328L12.643 15.0579L15.9329 20.2197L20.334 4.30078ZM13.6896 13.8753C13.7896 13.8182 13.9182 13.8468 13.9754 13.9325L15.6043 16.476C15.6615 16.576 15.6329 16.7046 15.5472 16.7618C15.5043 16.7761 15.4757 16.7903 15.4329 16.7903C15.3614 16.7903 15.3043 16.7618 15.2614 16.6903L13.6324 14.1611C13.5753 14.0611 13.6039 13.9325 13.6896 13.8753Z" fill="#60B7FF"/>
<path fill-rule="evenodd" clip-rule="evenodd" d="M15.8475 20.7772C15.776 20.7772 15.7189 20.7486 15.676 20.6771L12.2024 15.2305L7.80265 16.4619C7.7741 16.4476 7.75981 16.4476 7.74551 16.4476C7.68833 16.4476 7.64545 16.4333 7.60261 16.3904C7.54547 16.3333 7.53117 16.2618 7.54547 16.1903L8.76295 11.7908L3.31584 8.31704C3.24441 8.27415 3.21582 8.18842 3.21582 8.11699C3.23012 8.03126 3.28725 7.97408 3.35869 7.9455L20.5057 3.2301C20.5221 3.22682 20.5386 3.22503 20.5548 3.22495C20.6161 3.21592 20.678 3.2367 20.7201 3.28719C20.7957 3.3628 20.8046 3.47177 20.7469 3.54543L16.0475 20.6343C16.0189 20.7058 15.9618 20.7772 15.876 20.7772C15.8617 20.7772 15.8618 20.7772 15.8475 20.7772ZM12.1268 14.8195C12.1369 14.8084 12.1483 14.7984 12.1609 14.79C12.2609 14.7328 12.3895 14.7614 12.4467 14.8472L12.4558 14.8615C12.4617 14.8693 12.467 14.8777 12.4718 14.8866L15.7617 20.0484L20.1628 4.1295L11.1606 13.1182C11.1178 13.1611 11.0606 13.1896 11.0178 13.1896C10.9703 13.1896 10.9327 13.1798 10.8968 13.152L9.1302 12.0251L8.04558 15.9617L12.1268 14.8195ZM9.09566 11.5159C9.11235 11.5235 9.12737 11.5332 9.14069 11.5446L10.9956 12.7259L19.9027 3.81886L3.916 8.21695L9.09566 11.5159ZM15.2617 16.619C15.1902 16.619 15.1331 16.5905 15.0902 16.519L13.4612 13.9898C13.404 13.8898 13.4326 13.7612 13.5184 13.704C13.6184 13.6469 13.747 13.6755 13.8041 13.7612L15.4331 16.3047C15.4903 16.4047 15.4617 16.5333 15.376 16.5905C15.3331 16.6048 15.3045 16.619 15.2617 16.619ZM10.1175 10.5461C10.0746 10.5461 10.0461 10.5318 10.0032 10.5176L7.45974 8.90286C7.35967 8.84569 7.33112 8.71707 7.40256 8.61705C7.45974 8.51703 7.58831 8.48844 7.68837 8.55991L10.2319 10.1746C10.3319 10.2317 10.3605 10.3603 10.289 10.4603C10.2461 10.5176 10.1889 10.5461 10.1175 10.5461Z" fill="#333333"/>
</svg>
