<svg width="24" height="24" viewBox="0 0 24 24" fill="none" xmlns="http://www.w3.org/2000/svg">
<g clip-path="url(#clip0_120_109)">
<path d="M14.4052 0.375854H9.59459C5.16655 0.375854 1.5769 3.96549 1.5769 8.39354V12.0015C1.5769 15.2892 3.55597 18.1141 6.38754 19.3515V23.6272L9.99551 20.0192H14.4052C18.8333 20.0192 22.4229 16.4296 22.4229 12.0016V8.39359C22.4229 3.96545 18.8333 0.375854 14.4052 0.375854Z" fill="white"/>
<path d="M7.99109 22.0237V19.3515C5.15956 18.1142 3.18045 15.2892 3.18045 12.0015V8.39354C3.18045 3.96545 6.77014 0.375854 11.1981 0.375854H9.59459C5.16655 0.375854 1.5769 3.96549 1.5769 8.39354V12.0015C1.5769 15.2892 3.55597 18.1141 6.38755 19.3515V23.6272L7.99109 22.0237Z" fill="#FFC700"/>
<path d="M17.2976 13.0373L14.4629 12.4704L13.1181 13.8152C10.843 12.8511 9.64035 11.6484 8.58256 9.2797L9.92745 7.93481L9.3605 5.10009L7.40802 4.73962C6.98089 4.8367 6.57491 5.05092 6.24233 5.38355C5.59536 6.03051 5.5055 6.92911 5.63835 7.77366C5.93886 9.68405 6.86895 12.2397 8.49847 13.8756C8.50241 13.8795 8.5062 13.8836 8.51014 13.8876C8.51408 13.8915 8.51816 13.8953 8.5221 13.8992C10.158 15.5287 12.7137 16.4588 14.624 16.7594C15.4686 16.8922 16.3672 16.8023 17.0142 16.1554C17.3468 15.8227 17.561 15.4169 17.6581 14.9897L17.2976 13.0373Z" fill="white"/>
<path d="M15.38 16.0035C13.4697 15.703 10.914 14.7729 9.2781 13.1434C9.27416 13.1395 9.27008 13.1357 9.26609 13.1317C9.26216 13.1278 9.25836 13.1237 9.25442 13.1197C7.62491 11.4838 6.69486 8.92812 6.3943 7.01778C6.2878 6.34086 6.32474 5.62934 6.67658 5.04041C6.52236 5.13603 6.37616 5.2497 6.24233 5.38362C5.59536 6.03059 5.5055 6.92919 5.63835 7.77373C5.93886 9.68412 6.86895 12.2398 8.49847 13.8757C8.50241 13.8796 8.5062 13.8837 8.51014 13.8876C8.51408 13.8915 8.51816 13.8953 8.52209 13.8993C10.158 15.5288 12.7137 16.4588 14.624 16.7594C15.4686 16.8922 16.3672 16.8024 17.0142 16.1554C17.148 16.0216 17.2618 15.8754 17.3574 15.7212C16.7684 16.0731 16.057 16.11 15.38 16.0035Z" fill="#FFC700"/>
<path d="M20.3997 2.51827C20.2544 2.37005 20.0164 2.36756 19.8683 2.51302C19.72 2.65828 19.7176 2.89622 19.863 3.04444C21.2715 4.48134 22.0472 6.38105 22.0472 8.39353V12.0015C22.0472 16.2152 18.6191 19.6434 14.4053 19.6434H9.99563C9.89597 19.6434 9.80039 19.683 9.72984 19.7535L6.7635 22.7198V19.3514C6.7635 19.2021 6.675 19.0668 6.53817 19.0071C3.75267 17.7899 1.95286 15.0401 1.95286 12.0015V8.39353C1.95286 4.1798 5.38097 0.751641 9.59475 0.751641H14.4054C15.9072 0.751641 17.3606 1.18692 18.6084 2.01023C18.7817 2.12461 19.0148 2.07675 19.1291 1.90355C19.2434 1.73025 19.1957 1.49719 19.0224 1.38286C17.6512 0.478219 16.0547 0 14.4053 0H9.5947C4.96655 0 1.20117 3.76537 1.20117 8.39353V12.0015C1.20117 15.2561 3.08123 18.2092 6.01181 19.5934V23.6272C6.01181 23.9542 6.42127 24.125 6.65344 23.893L10.1513 20.3951H14.4054C19.0335 20.3951 22.7989 16.6297 22.7989 12.0015V8.39358C22.7989 6.18309 21.9468 4.0965 20.3997 2.51827Z" fill="#292929"/>
<path d="M14.6826 16.3882C12.8861 16.1055 10.394 15.2333 8.78801 13.6336L8.76485 13.6105C8.02605 12.8687 7.36751 11.8456 6.86055 10.6518C6.77937 10.4607 6.55877 10.3717 6.36771 10.4528C6.17665 10.5339 6.08754 10.7545 6.16868 10.9456C6.71285 12.2269 7.42648 13.3318 8.23376 14.1425L8.25701 14.1656C9.99101 15.8927 12.6529 16.8297 14.5658 17.1307C14.8059 17.1684 15.0371 17.1872 15.2587 17.1872C16.0833 17.1872 16.7737 16.9275 17.2801 16.4212C17.6511 16.0501 17.9087 15.5839 18.0247 15.073C18.036 15.0233 18.0371 14.9718 18.0278 14.9216L17.6673 12.9691C17.6394 12.8179 17.5222 12.6989 17.3714 12.6688L14.5368 12.1019C14.4136 12.0773 14.2862 12.1158 14.1973 12.2047L13.0334 13.3686C11.0718 12.4929 9.98777 11.4068 9.03293 9.36104L10.1933 8.20074C10.2821 8.11191 10.3206 7.9845 10.2961 7.86127L9.72916 5.02655C9.69898 4.87575 9.58005 4.75857 9.42884 4.73068L7.47635 4.3703C7.42619 4.36093 7.37463 4.3621 7.3249 4.3734C6.81396 4.48946 6.34774 4.74694 5.97668 5.11805C5.3343 5.76047 5.08891 6.6991 5.26723 7.8323C5.34841 8.34821 5.46907 8.88272 5.62587 9.42099C5.68399 9.62035 5.89291 9.73454 6.09185 9.67674C6.29116 9.61866 6.40563 9.41007 6.3476 9.21075C6.19966 8.703 6.08604 8.19989 6.00982 7.71539C5.86844 6.81671 6.03612 6.12165 6.50829 5.64947C6.76146 5.39625 7.07519 5.2156 7.41944 5.12405L9.04207 5.42363L9.51963 7.81144L8.31701 9.01402C8.2069 9.12418 8.1761 9.29077 8.23957 9.43299C9.33284 11.8813 10.6154 13.1629 12.9716 14.1613C13.1127 14.221 13.2758 14.1893 13.384 14.081L14.5865 12.8783L16.9743 13.3559L17.2739 14.9785C17.1824 15.3227 17.0017 15.6365 16.7486 15.8897C16.2764 16.3619 15.5812 16.5296 14.6826 16.3882Z" fill="#292929"/>
<path d="M12.8019 6.81506C12.5943 6.81506 12.426 6.9833 12.426 7.19091C12.426 7.39852 12.5943 7.56675 12.8019 7.56675C13.6999 7.56675 14.4304 8.2973 14.4304 9.19533C14.4304 9.40013 14.6015 9.57117 14.8063 9.57117C15.0111 9.57117 15.1821 9.40013 15.1821 9.19533C15.1821 7.88288 14.1143 6.81506 12.8019 6.81506Z" fill="#292929"/>
<path d="M16.3464 9.96975C16.55 9.99174 16.7387 9.84136 16.7612 9.63741C16.7773 9.49144 16.7855 9.34261 16.7855 9.19524C16.7855 6.99854 14.9984 5.21143 12.8017 5.21143C12.6543 5.21143 12.5055 5.21958 12.3595 5.23566C12.1532 5.25844 12.0045 5.44416 12.0272 5.65046C12.05 5.85671 12.2356 6.00497 12.442 5.9828C12.5607 5.96968 12.6817 5.96302 12.8016 5.96302C14.5838 5.96302 16.0337 7.41296 16.0337 9.19514C16.0337 9.31514 16.0271 9.43613 16.014 9.55482C15.9914 9.76125 16.1402 9.94697 16.3464 9.96975Z" fill="#292929"/>
<path d="M18.2397 10.4844C18.3389 10.0644 18.3892 9.63074 18.3892 9.19527C18.3892 6.11441 15.8827 3.60791 12.8018 3.60791C12.6592 3.60791 12.5148 3.61339 12.3726 3.62413C12.1656 3.63983 12.0105 3.8203 12.0262 4.0273C12.042 4.2343 12.2216 4.38904 12.4294 4.37361C12.5527 4.36424 12.6781 4.35955 12.8019 4.35955C15.4683 4.35955 17.6376 6.52883 17.6376 9.19522C17.6376 9.57252 17.594 9.94804 17.5082 10.3115C17.4616 10.5083 17.5849 10.7114 17.7805 10.7618C17.9816 10.8138 18.1919 10.6862 18.2397 10.4844Z" fill="#292929"/>
</g>
<defs>
<clipPath id="clip0_120_109">
<rect width="24" height="24" fill="white"/>
</clipPath>
</defs>
</svg>
