<svg width="24" height="24" viewBox="0 0 24 24" fill="none" xmlns="http://www.w3.org/2000/svg">
<g clip-path="url(#clip0_120_214)">
<path d="M14.4055 0.375732H9.59484C5.16679 0.375732 1.57715 3.96537 1.57715 8.39342V12.0014C1.57715 15.2891 3.55621 18.114 6.38779 19.3513V23.6271L9.99576 20.0191H14.4055C18.8335 20.0191 22.4232 16.4294 22.4232 12.0014V8.39347C22.4232 3.96533 18.8336 0.375732 14.4055 0.375732Z" fill="#665CAC"/>
<path d="M7.99134 22.0235V19.3513C5.1598 18.1141 3.1807 15.2891 3.1807 12.0014V8.39342C3.1807 3.96533 6.77038 0.375732 11.1984 0.375732H9.59484C5.16679 0.375732 1.57715 3.96537 1.57715 8.39342V12.0014C1.57715 15.2891 3.55621 18.114 6.38779 19.3513V23.6271L7.99134 22.0235Z" fill="#523494"/>
<path d="M17.2979 13.0375L14.4631 12.4705L13.1183 13.8154C10.8433 12.8512 9.64059 11.6486 8.58281 9.27982L9.9277 7.93493L9.36074 5.10021L7.40826 4.73975C6.98114 4.83682 6.57515 5.05104 6.24257 5.38367C5.5956 6.03064 5.50575 6.92923 5.63859 7.77378C5.9391 9.68417 6.8692 12.2398 8.49871 13.8757C8.50265 13.8797 8.50645 13.8837 8.51039 13.8877C8.51432 13.8916 8.5184 13.8954 8.52234 13.8994C10.1582 15.5289 12.7139 16.4589 14.6243 16.7595C15.4688 16.8923 16.3674 16.8025 17.0144 16.1555C17.347 15.8229 17.5612 15.417 17.6583 14.9898L17.2979 13.0375Z" fill="white"/>
<path d="M15.3803 16.0034C13.4699 15.7028 10.9142 14.7728 9.27834 13.1433C9.2744 13.1393 9.27032 13.1355 9.26634 13.1316C9.2624 13.1277 9.2586 13.1236 9.25467 13.1196C7.62515 11.4837 6.6951 8.928 6.39454 7.01766C6.28804 6.34074 6.32498 5.62922 6.67682 5.04028C6.5226 5.13591 6.3764 5.24958 6.24257 5.3835C5.5956 6.03047 5.50575 6.92906 5.63859 7.77361C5.9391 9.684 6.8692 12.2397 8.49871 13.8756C8.50265 13.8795 8.50645 13.8836 8.51039 13.8875C8.51432 13.8914 8.5184 13.8952 8.52234 13.8991C10.1582 15.5287 12.7139 16.4587 14.6243 16.7593C15.4688 16.8921 16.3674 16.8023 17.0144 16.1553C17.1483 16.0215 17.262 15.8753 17.3576 15.721C16.7687 16.073 16.0572 16.1099 15.3803 16.0034Z" fill="#E5E5E5"/>
<path d="M20.3997 2.51827C20.2544 2.37005 20.0164 2.36756 19.8683 2.51302C19.72 2.65828 19.7176 2.89622 19.863 3.04444C21.2715 4.48134 22.0472 6.38105 22.0472 8.39353V12.0015C22.0472 16.2152 18.6191 19.6434 14.4053 19.6434H9.99563C9.89597 19.6434 9.80039 19.683 9.72985 19.7535L6.7635 22.7198V19.3514C6.7635 19.2021 6.675 19.0668 6.53817 19.0071C3.75267 17.7899 1.95286 15.0401 1.95286 12.0015V8.39353C1.95286 4.1798 5.38097 0.751641 9.59475 0.751641H14.4054C15.9072 0.751641 17.3606 1.18692 18.6084 2.01023C18.7817 2.12461 19.0148 2.07675 19.1291 1.90355C19.2434 1.73025 19.1957 1.49719 19.0224 1.38286C17.6512 0.478219 16.0547 0 14.4053 0H9.5947C4.96655 0 1.20117 3.76537 1.20117 8.39353V12.0015C1.20117 15.2561 3.08123 18.2092 6.01181 19.5934V23.6272C6.01181 23.9543 6.42127 24.125 6.65344 23.893L10.1513 20.3951H14.4054C19.0335 20.3951 22.7989 16.6297 22.7989 12.0015V8.39358C22.7989 6.18309 21.9468 4.0965 20.3997 2.51827Z" fill="#292929"/>
<path d="M14.6829 16.3882C12.8863 16.1055 10.3943 15.2333 8.78825 13.6336L8.7651 13.6105C8.0263 12.8687 7.36775 11.8456 6.8608 10.6518C6.77961 10.4607 6.55902 10.3717 6.36795 10.4528C6.17689 10.5339 6.08778 10.7545 6.16892 10.9456C6.7131 12.2269 7.42672 13.3318 8.234 14.1425L8.25725 14.1656C9.99125 15.8927 12.6531 16.8297 14.566 17.1307C14.8061 17.1684 15.0373 17.1872 15.259 17.1872C16.0835 17.1872 16.7739 16.9275 17.2803 16.4212C17.6514 16.0501 17.9089 15.5839 18.0249 15.073C18.0363 15.0233 18.0373 14.9718 18.028 14.9216L17.6675 12.9691C17.6397 12.8179 17.5224 12.6989 17.3717 12.6688L14.537 12.1019C14.4138 12.0773 14.2865 12.1158 14.1975 12.2047L13.0337 13.3686C11.072 12.4929 9.98802 11.4068 9.03317 9.36104L10.1935 8.20074C10.2823 8.11191 10.3209 7.9845 10.2963 7.86127L9.72941 5.02655C9.69922 4.87575 9.5803 4.75857 9.42908 4.73068L7.4766 4.3703C7.42644 4.36093 7.37488 4.3621 7.32514 4.3734C6.8142 4.48946 6.34799 4.74694 5.97692 5.11805C5.33455 5.76047 5.08916 6.6991 5.26747 7.8323C5.34866 8.34821 5.46931 8.88272 5.62611 9.42099C5.68424 9.62035 5.89316 9.73454 6.09209 9.67674C6.29141 9.61866 6.40588 9.41007 6.34785 9.21075C6.19991 8.703 6.08628 8.19989 6.01006 7.71539C5.86869 6.81671 6.03636 6.12164 6.50853 5.64947C6.7617 5.39625 7.07544 5.2156 7.41969 5.12405L9.04231 5.42363L9.51988 7.81144L8.31725 9.01402C8.20714 9.12418 8.17635 9.29077 8.23981 9.43299C9.33308 11.8813 10.6156 13.1629 12.9718 14.1613C13.113 14.221 13.276 14.1893 13.3843 14.081L14.5868 12.8783L16.9745 13.3559L17.2742 14.9785C17.1826 15.3227 17.0019 15.6365 16.7488 15.8897C16.2767 16.3619 15.5815 16.5296 14.6829 16.3882Z" fill="#292929"/>
<path d="M12.8016 6.81494C12.594 6.81494 12.4258 6.98318 12.4258 7.19079C12.4258 7.39839 12.594 7.56663 12.8016 7.56663C13.6997 7.56663 14.4302 8.29718 14.4302 9.19521C14.4302 9.4 14.6012 9.57105 14.806 9.57105C15.0108 9.57105 15.1819 9.4 15.1819 9.19521C15.1819 7.88275 14.1141 6.81494 12.8016 6.81494Z" fill="#292929"/>
<path d="M16.346 9.96975C16.5495 9.99174 16.7383 9.84136 16.7608 9.63741C16.7768 9.49144 16.785 9.34261 16.785 9.19524C16.785 6.99854 14.9979 5.21143 12.8012 5.21143C12.6538 5.21143 12.505 5.21958 12.3591 5.23566C12.1528 5.25844 12.004 5.44416 12.0267 5.65046C12.0495 5.85671 12.2351 6.00497 12.4415 5.9828C12.5602 5.96968 12.6812 5.96302 12.8011 5.96302C14.5833 5.96302 16.0333 7.41296 16.0333 9.19514C16.0333 9.31514 16.0266 9.43613 16.0135 9.55482C15.9909 9.76125 16.1397 9.94697 16.346 9.96975Z" fill="#292929"/>
<path d="M18.2399 10.4844C18.3391 10.0644 18.3894 9.63074 18.3894 9.19527C18.3894 6.11441 15.8829 3.60791 12.8021 3.60791C12.6594 3.60791 12.515 3.61339 12.3728 3.62413C12.1659 3.63983 12.0107 3.8203 12.0265 4.0273C12.0422 4.2343 12.2218 4.38904 12.4297 4.37361C12.553 4.36424 12.6783 4.35955 12.8021 4.35955C15.4685 4.35955 17.6378 6.52883 17.6378 9.19522C17.6378 9.57252 17.5943 9.94804 17.5084 10.3115C17.4619 10.5083 17.5851 10.7114 17.7808 10.7618C17.9818 10.8138 18.1922 10.6862 18.2399 10.4844Z" fill="#292929"/>
</g>
<defs>
<clipPath id="clip0_120_214">
<rect width="24" height="24" fill="white"/>
</clipPath>
</defs>
</svg>
